<?xml version="1.0" encoding="UTF-8" standalone="no"?>
<svg
   xmlns:dc="http://purl.org/dc/elements/1.1/"
   xmlns:cc="http://creativecommons.org/ns#"
   xmlns:rdf="http://www.w3.org/1999/02/22-rdf-syntax-ns#"
   xmlns:svg="http://www.w3.org/2000/svg"
   xmlns="http://www.w3.org/2000/svg"
   id="svg3341"
   version="1.1"
   viewBox="0 0 100 100"
   height="100pt"
   width="100pt">
  <metadata
     id="metadata3352">
    <rdf:RDF>
      <cc:Work
         rdf:about="">
        <dc:format>image/svg+xml</dc:format>
        <dc:type
           rdf:resource="http://purl.org/dc/dcmitype/StillImage" />
        <dc:title></dc:title>
      </cc:Work>
    </rdf:RDF>
  </metadata>
  <defs
     id="defs3350" />
  <g
     transform="matrix(0.88,0,0,0.88,6,6)"
     id="#000000ff">
    <path
       style="opacity:1;fill:#000000"
       id="path3344"
       d="m 84.55,5.82 c 0.65,-3.38 3.72,-6.58 7.41,-5.37 4.41,1.1 5.28,7.62 1.44,9.96 -2.72,2.04 -5.98,0.2 -8.13,-1.74 -21.19,6.41 -42.43,12.62 -63.58,19.16 0.18,0.73 0.54,2.2 0.72,2.93 21.2,-0.03 42.4,0.03 63.61,-0.03 3.09,-0.01 6.41,0.21 9,2.11 2.89,1.88 4.44,5.18 4.98,8.5 l 0,48.31 C 99.29,94.98 95,99.28 89.67,100 l -79.33,0 C 5.02,99.29 0.72,94.99 0,89.67 l 0,-49 C 0.78,36.2 4.11,32.88 8.15,31.1 8.75,29.22 9,27.02 10.64,25.69 13.41,22.84 17.68,24.59 21.09,23.44 42.22,17.48 63.41,11.76 84.55,5.82 M 11.51,38.51 C 11.48,43.57 11.54,48.63 11.46,53.69 28.17,53.74 44.9,53.9 61.61,53.61 61.4,48.58 61.54,43.54 61.49,38.51 44.83,38.5 28.17,38.5 11.51,38.51 m 54,0 c -0.03,5.06 0.04,10.11 -0.06,15.17 7.72,0.08 15.44,0.2 23.16,-0.07 -0.21,-5.03 -0.07,-10.07 -0.12,-15.1 -7.66,-0.01 -15.32,-0.01 -22.98,0 m 6.94,27.14 c -4.3,1.63 -7.34,5.89 -7.63,10.47 -0.62,6.76 5.37,13.2 12.19,12.92 7.18,0.13 13.27,-7.09 11.85,-14.15 -0.99,-7.35 -9.59,-12.2 -16.41,-9.24 m -60.5,0.26 c -1,6.58 -0.22,13.39 -0.43,20.06 -0.52,2.44 3.23,3.66 3.77,1 0.43,-6.29 0.19,-12.63 0.15,-18.93 0.42,-2.09 -1.85,-3.34 -3.49,-2.13 m 7.51,0.34 c -0.42,6.89 -0.22,13.83 -0.11,20.74 -0.04,1.79 3.62,2.05 3.53,0.01 0.18,-6.99 0.28,-14.01 -0.07,-20.99 -1.22,-0.85 -2.34,-0.77 -3.35,0.24 m 7.73,-0.24 c -0.35,7.01 -0.25,14.05 -0.07,21.06 0.04,2 3.58,1.67 3.54,-0.1 0.17,-6.63 0.15,-13.28 0.01,-19.91 0.01,-1.78 -2.34,-2.03 -3.48,-1.05 m 7.37,2.02 c -0.11,5.96 -0.13,11.93 0.01,17.88 -0.38,1.74 1.99,3.72 3.3,1.97 1.05,-1.4 0.49,-3.25 0.66,-4.85 -0.22,-5.82 0.36,-11.67 -0.39,-17.46 -1.75,-0.3 -3.97,0.17 -3.58,2.46 m 8.03,-1.62 c -0.83,5.11 -0.08,10.42 -0.36,15.61 0.27,2.19 -0.93,5.4 1.67,6.54 2.47,0.07 2.41,-2.77 2.37,-4.49 -0.15,-5.66 0.23,-11.34 -0.2,-16.99 0.15,-1.78 -2.86,-2.42 -3.48,-0.67 m 7.52,0.52 c -0.26,6.38 -0.08,12.78 -0.09,19.17 -0.38,2.16 2.27,2.87 3.7,1.72 -0.01,-6.94 0.13,-13.89 -0.04,-20.83 0.21,-2.01 -3.47,-2.12 -3.57,-0.06 z" />
    <path
       style="opacity:1;fill:#000000"
       id="path3346"
       d="m 74.3,70.45 c 4.78,-2.17 10.67,2.55 9.43,7.71 -0.59,5.34 -8.1,7.66 -11.68,3.72 -3.59,-3.27 -2.25,-9.73 2.25,-11.43 z" />
  </g>
</svg>
