<?xml version="1.0" encoding="UTF-8" standalone="no"?>
<svg
   xmlns:dc="http://purl.org/dc/elements/1.1/"
   xmlns:cc="http://creativecommons.org/ns#"
   xmlns:rdf="http://www.w3.org/1999/02/22-rdf-syntax-ns#"
   xmlns:svg="http://www.w3.org/2000/svg"
   xmlns="http://www.w3.org/2000/svg"
   id="svg2"
   version="1.1"
   viewBox="0 0 100 100"
   height="100pt"
   width="100pt">
  <metadata
     id="metadata13">
    <rdf:RDF>
      <cc:Work
         rdf:about="">
        <dc:format>image/svg+xml</dc:format>
        <dc:type
           rdf:resource="http://purl.org/dc/dcmitype/StillImage" />
        <dc:title></dc:title>
      </cc:Work>
    </rdf:RDF>
  </metadata>
  <defs
     id="defs11" />
  <g
     transform="matrix(0.92,0,0,0.92,4,0)"
     id="#000000ff">
    <path
       style="opacity:1;fill:#000000"
       id="path5"
       d="m 0,18.05 c 1.06,-1.81 2.85,-2.84 4.98,-2.56 30.34,0.06 60.69,-0.06 91.02,0.06 1.92,-0.31 3.03,1.24 4,2.6 l 0,63.42 C 98.69,85.48 94.14,84.4 90.95,84.53 63.64,84.48 36.32,84.48 9,84.53 5.83,84.41 1.64,85.4 0,81.86 L 0,18.05 M 7.76,23 c -0.01,16.67 -0.01,33.33 0,50 28.16,0 56.32,0 84.48,0 0.01,-16.67 0.01,-33.33 0,-50 -28.16,0 -56.32,0 -84.48,0 z" />
    <path
       style="opacity:1;fill:#000000"
       id="path7"
       d="m 34.34,96.24 c -0.18,-3.06 0.82,-7.58 4.62,-7.7 6.68,-0.16 13.36,0.05 20.05,-0.07 1.96,0.13 4.63,-0.25 5.73,1.83 0.83,1.88 0.85,3.96 0.9,5.98 6.43,0.04 12.88,-0.19 19.31,0.04 2.18,-0.08 2.91,2.31 4.06,3.68 l -77.95,0 c 1.15,-1.34 1.83,-3.76 3.97,-3.68 6.43,-0.24 12.87,0.03 19.31,-0.08 z" />
  </g>
</svg>
