<?xml version="1.0" encoding="UTF-8" standalone="no"?>
<svg
   xmlns:dc="http://purl.org/dc/elements/1.1/"
   xmlns:cc="http://creativecommons.org/ns#"
   xmlns:rdf="http://www.w3.org/1999/02/22-rdf-syntax-ns#"
   xmlns:svg="http://www.w3.org/2000/svg"
   xmlns="http://www.w3.org/2000/svg"
   xml:space="preserve"
   enable-background="new 0 0 512 512"
   viewBox="0 0 512 512"
   height="512px"
   width="512px"
   y="0px"
   x="0px"
   id="Layer_1"
   version="1.1"><metadata
   id="metadata3463"><rdf:RDF><cc:Work
       rdf:about=""><dc:format>image/svg+xml</dc:format><dc:type
         rdf:resource="http://purl.org/dc/dcmitype/StillImage" /><dc:title></dc:title></cc:Work></rdf:RDF></metadata><defs
   id="defs3461" />
<path
   style="clip-rule:evenodd;fill:#ffffff;fill-rule:evenodd"
   id="path3457"
   d="m 391,176 c -4.98,0 -9.90187,0.35156 -14.805,1.05468 C 348.18813,138.89094 303.98875,116 256,116 208.01125,116 163.8325,138.89094 135.80501,177.05468 130.90187,176.35156 125.98,176 121,176 63.109377,176 16,223.10938 16,281 c 0,57.89062 47.109377,105 105,105 12.8325,0 25.39125,-2.34375 37.22719,-6.87469 C 185.37438,402.79719 219.90625,416 256,416 c 36.13313,0 70.62469,-13.20281 97.77282,-36.87469 C 365.60875,383.65625 378.1675,386 391,386 448.89062,386 496,338.89062 496,281 496,223.10938 448.89062,176 391,176 Z m 0,180 c -16.05468,0 -30.85875,-5.15625 -43.06687,-13.75031 C 325.92251,368.7725 293.1475,386 256,386 218.85156,386 186.0775,368.7725 164.06688,342.24969 151.87938,350.84375 137.05469,356 121,356 79.573751,356 46.000001,322.42625 46.000001,281 c 0,-41.42625 33.57375,-75 74.999999,-75 10.13625,0 19.74563,2.07 28.53563,5.70281 C 169.43781,172.87531 209.39781,146 256,146 c 46.60219,0 86.56313,26.87531 106.44469,65.70281 C 371.25438,208.07 380.88344,206 391,206 c 41.42625,0 75,33.57375 75,75 0,41.42625 -33.57375,75 -75,75 z" />
</svg>