<?xml version="1.0" encoding="UTF-8" standalone="no"?>
<svg
   xmlns:dc="http://purl.org/dc/elements/1.1/"
   xmlns:cc="http://creativecommons.org/ns#"
   xmlns:rdf="http://www.w3.org/1999/02/22-rdf-syntax-ns#"
   xmlns:svg="http://www.w3.org/2000/svg"
   xmlns="http://www.w3.org/2000/svg"
   xml:space="preserve"
   enable-background="new 0 0 512 512"
   viewBox="0 0 512 512"
   height="512px"
   width="512px"
   y="0px"
   x="0px"
   id="Layer_1"
   version="1.1"><metadata
   id="metadata3472"><rdf:RDF><cc:Work
       rdf:about=""><dc:format>image/svg+xml</dc:format><dc:type
         rdf:resource="http://purl.org/dc/dcmitype/StillImage" /><dc:title></dc:title></cc:Work></rdf:RDF></metadata><defs
   id="defs3470" />
<path
   style="fill:#ffffff"
   id="path3466"
   d="m 496,193.00094 c 0,-46.09406 -37.5,-83.57438 -83.59406,-83.57438 -2.24625,0 -4.47282,0.0975 -6.69938,0.27281 C 384.02687,82.64875 351.35125,66.595 315.99906,66.595 c -35.3325,0 -68.02687,16.05375 -89.7075,43.10531 -2.22656,-0.17625 -4.47281,-0.27281 -6.73875,-0.27281 C 173.5,109.42656 136,146.90688 136,193.00094 c 0,4.82437 0.645,9.4725 1.40625,14.10187 -0.50813,0.66375 -1.11375,1.26938 -1.60125,1.95282 -4.90219,-0.70313 -9.82406,-1.05469 -14.805,-1.05469 -57.890625,0 -105,47.10843 -105,104.99906 0,57.89156 47.109375,105 105,105 12.8325,0 25.39125,-2.34375 37.22719,-6.87469 C 185.37437,434.79719 219.90625,448 256,448 c 36.13312,0 70.62469,-13.20281 97.77281,-36.87469 C 365.60875,415.65625 378.1675,418 391,418 c 57.89062,0 105,-47.10844 105,-105 0,-24.0825 -8.47687,-46.01531 -22.18687,-63.74906 C 487.48375,234.34844 496,214.72 496,193.00094 Z M 391,388 c -16.05469,0 -30.85875,-5.15531 -43.06687,-13.74937 C 325.92156,400.77344 293.1475,418 256,418 218.85156,418 186.0775,400.77344 164.06687,374.25063 151.87937,382.84469 137.05563,388 121,388 79.57375,388 46,354.42625 46,313 c 0,-41.42625 33.57375,-74.99906 75,-74.99906 10.13625,0 19.74563,2.05125 28.53562,5.68312 0.52688,-0.99562 1.17188,-1.875 1.69875,-2.83219 5.27344,-9.62906 11.77688,-18.4575 19.37438,-26.28937 C 192.25,192.14125 222.32781,178 256,178 c 46.60219,0 86.56313,26.87437 106.44469,65.68313 5.29312,-2.16751 10.93875,-3.57469 16.75781,-4.51126 L 391,238 c 11.56313,0 22.38281,2.85187 32.1675,7.5 10.605,5.0775 19.70719,12.53813 26.85563,21.73875 C 459.86688,279.91469 466,295.69562 466,313 c 0,41.42625 -33.57375,75 -75,75 z M 452.46438,228.27344 C 435.14031,215.65656 414.02688,208.00094 391,208.00094 c -4.98,0 -9.90188,0.35156 -14.805,1.05468 C 348.18813,170.89187 303.98781,148.00094 256,148.00094 c -31.99219,0 -62.1675,10.35187 -87.12937,28.43812 7.01156,-21.42562 26.93343,-37.01156 50.68312,-37.01156 7.26563,0 14.12063,1.46437 20.39063,4.06125 14.23875,-27.71438 42.77343,-46.89375 76.05468,-46.89375 33.28125,0 61.83563,19.17844 76.01625,46.89375 6.30844,-2.59688 13.20282,-4.06125 20.38969,-4.06125 29.61,0 53.59406,23.98406 53.59406,53.57437 9.4e-4,13.57313 -5.21344,25.81875 -13.53468,35.27157 z" />
</svg>