<?xml version="1.0" encoding="UTF-8" standalone="no"?>
<svg
   xmlns:dc="http://purl.org/dc/elements/1.1/"
   xmlns:cc="http://creativecommons.org/ns#"
   xmlns:rdf="http://www.w3.org/1999/02/22-rdf-syntax-ns#"
   xmlns:svg="http://www.w3.org/2000/svg"
   xmlns="http://www.w3.org/2000/svg"
   xml:space="preserve"
   enable-background="new 0 0 512 512"
   viewBox="0 0 512 512"
   height="512px"
   width="512px"
   y="0px"
   x="0px"
   id="Layer_1"
   version="1.1"><metadata
   id="metadata3525"><rdf:RDF><cc:Work
       rdf:about=""><dc:format>image/svg+xml</dc:format><dc:type
         rdf:resource="http://purl.org/dc/dcmitype/StillImage" /><dc:title></dc:title></cc:Work></rdf:RDF></metadata><defs
   id="defs3523" />
<g
   transform="matrix(1.5,0,0,1.5,-128,-112)"
   id="g3515">
	<g
   id="g3517">
		<path
   style="fill:#ffffff"
   id="path3519"
   d="m 112,160 288,0 c 8.833,0 16,-7.167 16,-16 0,-8.833 -7.167,-16 -16,-16 l -288,0 c -8.833,0 -16,7.167 -16,16 0,8.833 7.167,16 16,16 z m 288,32 -288,0 c -8.833,0 -16,7.167 -16,16 0,8.833 7.167,16 16,16 l 288,0 c 8.833,0 16,-7.167 16,-16 0,-8.833 -7.167,-16 -16,-16 z m 0,64 -288,0 c -8.833,0 -16,7.167 -16,16 0,8.833 7.167,16 16,16 l 288,0 c 8.833,0 16,-7.167 16,-16 0,-8.833 -7.167,-16 -16,-16 z m 0,64 -288,0 c -8.833,0 -16,7.167 -16,16 0,8.833 7.167,16 16,16 l 288,0 c 8.833,0 16,-7.167 16,-16 0,-8.833 -7.167,-16 -16,-16 z" />
	</g>
</g>
</svg>