<?xml version="1.0" encoding="UTF-8" ?>
<!DOCTYPE svg PUBLIC "-//W3C//DTD SVG 1.1//EN" "http://www.w3.org/Graphics/SVG/1.1/DTD/svg11.dtd">
<svg width="100pt" height="100pt" viewBox="0 0 100 100" version="1.1" xmlns="http://www.w3.org/2000/svg">
<g id="#ffffffff">
<path fill="#ffffff" opacity="1.00" d=" M 16.10 7.91 C 16.00 4.35 19.50 1.59 22.93 2.02 C 40.96 1.98 59.00 1.99 77.03 2.02 C 80.46 1.59 84.01 4.28 83.90 7.87 C 84.16 16.20 83.92 24.54 84.00 32.87 C 88.58 34.28 93.23 35.53 98.00 36.11 C 98.00 37.43 97.99 38.75 97.99 40.08 C 87.80 39.14 78.37 34.83 68.46 32.61 C 59.58 30.47 51.62 36.23 43.39 38.52 C 37.10 41.18 30.26 39.49 24.02 37.64 C 24.01 36.22 24.00 34.80 23.99 33.38 C 29.03 34.69 34.27 36.90 39.53 35.46 C 46.43 33.50 52.92 30.32 59.88 28.56 C 66.74 26.96 73.49 29.87 79.99 31.68 C 79.78 23.21 80.49 14.70 79.58 6.27 C 67.41 5.66 55.21 6.16 43.03 6.00 C 35.50 6.15 27.94 5.67 20.42 6.29 C 19.92 9.49 19.93 12.73 20.00 15.96 C 20.01 38.31 19.99 60.65 20.00 83.00 C 19.95 86.58 19.87 90.17 20.41 93.72 C 32.59 94.36 44.80 93.83 56.99 94.00 C 64.53 93.86 72.09 94.32 79.61 93.72 C 80.43 86.51 79.81 79.24 80.00 72.00 C 81.33 72.39 82.67 72.79 84.00 73.18 C 83.86 79.83 84.29 86.50 83.78 93.13 C 83.46 96.35 80.08 98.31 77.04 97.98 C 59.00 98.01 40.96 98.02 22.93 97.98 C 19.47 98.44 16.01 95.69 16.10 92.12 C 15.85 83.82 16.08 75.50 16.00 67.19 C 11.41 65.80 6.79 64.39 2.00 63.89 C 2.00 62.57 2.01 61.24 2.01 59.92 C 6.79 60.36 11.40 61.68 15.99 63.00 C 16.00 59.06 16.00 55.12 16.00 51.19 C 11.41 49.80 6.79 48.39 2.00 47.89 C 2.00 46.57 2.01 45.24 2.01 43.92 C 6.79 44.36 11.40 45.68 15.99 47.00 C 16.00 43.06 16.00 39.13 16.00 35.19 C 11.41 33.80 6.79 32.39 2.00 31.89 C 2.00 30.57 2.01 29.24 2.01 27.92 C 6.79 28.36 11.40 29.68 16.00 31.00 C 16.09 23.30 15.84 15.60 16.10 7.91 Z" />
<path fill="#ffffff" opacity="1.00" d=" M 59.92 44.55 C 64.05 43.52 68.34 44.35 72.37 45.41 C 80.88 47.73 89.20 50.98 98.00 52.09 C 97.99 53.42 97.99 54.75 97.99 56.08 C 86.63 55.15 76.30 49.58 65.06 48.13 C 55.15 48.13 46.79 55.04 37.00 55.91 C 32.55 56.19 28.27 54.70 24.02 53.64 C 24.01 52.22 24.00 50.80 24.00 49.38 C 29.04 50.70 34.27 52.90 39.54 51.46 C 46.44 49.48 52.95 46.32 59.92 44.55 Z" />
<path fill="#ffffff" opacity="1.00" d=" M 41.09 67.03 C 50.30 64.43 59.32 58.28 69.24 60.67 C 78.91 62.83 88.12 66.89 98.00 68.10 C 97.99 69.42 97.99 70.75 97.99 72.08 C 87.60 71.13 78.00 66.66 67.89 64.43 C 56.18 62.41 46.48 72.26 34.91 71.93 C 31.18 71.71 27.61 70.55 24.02 69.64 C 24.01 68.22 24.00 66.80 23.99 65.38 C 29.51 66.90 35.41 69.20 41.09 67.03 Z" />
</g>
</svg>
