<?xml version="1.0" encoding="UTF-8" standalone="no"?>
<svg
   xmlns:dc="http://purl.org/dc/elements/1.1/"
   xmlns:cc="http://creativecommons.org/ns#"
   xmlns:rdf="http://www.w3.org/1999/02/22-rdf-syntax-ns#"
   xmlns:svg="http://www.w3.org/2000/svg"
   xmlns="http://www.w3.org/2000/svg"
   id="svg5363"
   version="1.1"
   viewBox="0 0 57.6 96"
   height="72"
   width="72">
  <metadata
     id="metadata5372">
    <rdf:RDF>
      <cc:Work
         rdf:about="">
        <dc:format>image/svg+xml</dc:format>
        <dc:type
           rdf:resource="http://purl.org/dc/dcmitype/StillImage" />
        <dc:title></dc:title>
      </cc:Work>
    </rdf:RDF>
  </metadata>
  <defs
     id="defs5370" />
  <g
     transform="translate(0,-4)"
     id="#ffffffff">
    <path
       style="opacity:1;fill:#ffffff"
       id="path5366"
       d="m -16.314001,28.88 c 0.34,-5.36 5.59,-9.29 10.8000003,-8.88 20.7099997,-0.02 41.4099997,-0.01 62.1199997,-0.01 3.36,-0.1 6.84,1.19 8.86,3.98 2.68,3.34 1.990234,14.537005 2.080234,18.517005 1.84,0.16 3.7,0.21 5.5,0.68 0.84,6.23 0.82,12.74 0.01,18.97 -1.8,0.48 -3.67,0.53 -5.51,0.69 -0.09,3.99 0.6,15.186328 -2.09,18.526328 -2.03,2.8 -5.53,4.09 -8.91,3.97 -20.68,0.01 -41.35,0 -62.0300001,0 -3.6,0.12 -7.4099999,-1.37 -9.3299999,-4.54 -2.05,-3.06 -1.6,-6.91 -1.68,-10.4 0.19,-9.39 -0.220234,-32.123333 0.179766,-41.503333 m 3.9,1.05 c -0.18,9.69 0.05023,32.713333 -0.08977,42.403333 0.08,2.45 -0.25,5.39 1.81,7.19 1.5699999,1.75 4.0399999,1.83 6.2099999,1.83 20.3700001,-0.07 40.7400001,-0.01 61.1100001,-0.03 2.59,0.19 5.32,-1.09 6.36,-3.57 1.28,-3.86 -0.16,-14.776328 1.06,-18.656328 1.8,-0.39 3.66,-0.46 5.49,-0.61 l 0,-11.66 c -1.85,-0.16 -3.71,-0.22 -5.53,-0.63 -1.01,-3.68 -0.02023,-14.237005 -0.760234,-17.957005 -0.8,-2.86 -3.82,-4.5 -6.68,-4.25 l -62.0599997,0 c -3.45,-0.39 -7.0700003,2.31 -6.9200003,5.94 z" />
  </g>
</svg>
