<?xml version="1.0" encoding="UTF-8" ?>
<!DOCTYPE svg PUBLIC "-//W3C//DTD SVG 1.1//EN" "http://www.w3.org/Graphics/SVG/1.1/DTD/svg11.dtd">
<svg width="100pt" height="60pt" viewBox="0 0 100 100" version="1.1" xmlns="http://www.w3.org/2000/svg">
<g id="#ffffffff">
<path fill="#ffffff" opacity="1.00" d=" M 6.15 32.89 C 6.49 27.53 11.74 23.60 16.95 24.01 C 37.66 23.99 58.36 24.00 79.07 24.00 C 82.43 23.90 85.91 25.19 87.93 27.98 C 90.61 31.32 89.92 35.85 90.01 39.83 C 91.85 39.99 93.71 40.04 95.51 40.51 C 96.35 46.74 96.33 53.25 95.52 59.48 C 93.72 59.96 91.85 60.01 90.01 60.17 C 89.92 64.16 90.61 68.69 87.92 72.03 C 85.89 74.83 82.39 76.12 79.01 76.00 C 58.33 76.01 37.66 76.00 16.98 76.00 C 13.38 76.12 9.57 74.63 7.65 71.46 C 5.60 68.40 6.05 64.55 5.97 61.06 C 6.16 51.67 5.75 42.27 6.15 32.89 M 10.05 33.94 C 9.87 43.63 10.10 53.32 9.96 63.01 C 10.04 65.46 9.71 68.40 11.77 70.20 C 13.34 71.95 15.81 72.03 17.98 72.03 C 38.35 71.96 58.72 72.02 79.09 72.00 C 81.68 72.19 84.41 70.91 85.45 68.43 C 86.73 64.57 85.29 60.32 86.51 56.44 C 88.31 56.05 90.17 55.98 92.00 55.83 C 92.00 51.94 92.00 48.06 92.00 44.17 C 90.15 44.01 88.29 43.95 86.47 43.54 C 85.46 39.86 86.45 35.97 85.71 32.25 C 84.91 29.39 81.89 27.75 79.03 28.00 C 58.34 28.00 37.66 28.00 16.97 28.00 C 13.52 27.61 9.90 30.31 10.05 33.94 Z" />
</g>
</svg>
