<?xml version="1.0" encoding="UTF-8" ?>
<!DOCTYPE svg PUBLIC "-//W3C//DTD SVG 1.1//EN" "http://www.w3.org/Graphics/SVG/1.1/DTD/svg11.dtd">
<svg width="128pt" height="128pt" viewBox="0 0 128 128" version="1.1" xmlns="http://www.w3.org/2000/svg">
<g id="#191919ff">
<path fill="#191919" opacity="1.00" d=" M 10.98 25.00 C 10.68 23.11 11.71 20.73 13.96 21.04 C 28.10 20.85 42.26 21.21 56.40 20.87 C 57.33 22.05 58.23 23.36 58.02 24.96 C 57.99 51.31 57.99 77.67 58.02 104.02 C 58.25 105.64 57.32 106.93 56.39 108.13 C 41.78 107.90 27.15 107.93 12.54 108.12 C 11.65 106.90 10.77 105.59 10.98 103.99 C 11.01 77.66 11.02 51.33 10.98 25.00 M 29.43 35.64 C 24.82 37.73 21.79 42.97 22.72 48.02 C 23.58 54.07 29.92 58.64 35.94 57.49 C 42.16 56.69 46.72 50.11 45.38 44.00 C 44.26 37.00 35.85 32.46 29.43 35.64 M 30.21 65.18 C 21.93 67.06 15.52 75.48 16.68 84.04 C 17.53 93.40 26.91 100.60 36.15 99.58 C 45.73 99.04 53.96 89.74 52.47 80.07 C 51.38 69.77 40.12 62.41 30.21 65.18 Z" />
<path fill="#191919" opacity="1.00" d=" M 69.98 24.94 C 69.69 23.08 70.72 20.78 72.92 21.04 C 86.31 20.93 99.71 21.05 113.11 20.98 C 114.97 20.70 117.25 21.75 116.96 23.95 C 117.07 50.63 116.94 77.32 117.02 104.01 C 117.30 105.85 116.33 108.20 114.12 107.96 C 99.95 108.14 85.75 107.81 71.58 108.12 C 70.68 106.93 69.77 105.65 69.98 104.07 C 70.01 77.69 70.01 51.31 69.98 24.94 M 88.47 35.62 C 83.84 37.70 80.78 42.96 81.72 48.03 C 82.58 54.07 88.91 58.62 94.92 57.50 C 101.13 56.71 105.70 50.15 104.39 44.04 C 103.30 37.04 94.91 32.47 88.47 35.62 M 89.21 65.18 C 82.27 66.82 76.54 72.91 75.69 80.05 C 74.73 86.99 78.62 94.17 84.79 97.39 C 91.20 101.04 99.75 100.19 105.34 95.39 C 111.02 90.85 113.22 82.50 110.35 75.79 C 107.17 67.67 97.62 62.94 89.21 65.18 Z" />
<path fill="#191919" opacity="1.00" d=" M 30.48 39.65 C 35.76 36.21 43.23 42.06 41.32 48.01 C 40.19 53.19 33.06 55.52 29.23 51.75 C 25.24 48.67 26.04 41.91 30.48 39.65 Z" />
<path fill="#191919" opacity="1.00" d=" M 89.50 39.64 C 94.77 36.23 102.21 42.05 100.32 47.98 C 99.21 53.17 92.08 55.52 88.24 51.76 C 84.23 48.67 85.04 41.89 89.50 39.64 Z" />
<path fill="#191919" opacity="1.00" d=" M 29.44 69.66 C 36.47 66.70 45.44 70.65 47.84 77.91 C 50.52 84.76 45.93 92.88 39.05 94.90 C 31.68 97.63 22.56 92.77 20.92 85.03 C 19.28 78.68 23.46 71.90 29.44 69.66 Z" />
<path fill="#191919" opacity="1.00" d=" M 88.42 69.67 C 95.45 66.69 104.44 70.64 106.84 77.92 C 109.53 84.77 104.92 92.89 98.04 94.90 C 90.67 97.62 81.56 92.77 79.93 85.04 C 78.27 78.70 82.45 71.92 88.42 69.67 Z" />
</g>
</svg>
