<?xml version="1.0" encoding="UTF-8" ?>
<!DOCTYPE svg PUBLIC "-//W3C//DTD SVG 1.1//EN" "http://www.w3.org/Graphics/SVG/1.1/DTD/svg11.dtd">
<svg width="100pt" height="100pt" viewBox="0 0 100 100" version="1.1" xmlns="http://www.w3.org/2000/svg">
<g id="#ffffffff">
<path fill="#ffffff" opacity="1.00" d=" M 47.20 0.00 L 52.50 0.00 C 61.06 1.12 69.02 6.72 72.18 14.86 C 75.72 23.16 73.96 33.36 67.88 40.01 C 61.89 46.84 51.79 49.72 43.12 46.98 C 36.28 45.01 30.49 39.77 27.82 33.18 C 24.38 25.12 25.88 15.24 31.59 8.60 C 35.45 3.82 41.23 1.03 47.20 0.00 M 46.23 4.32 C 40.46 5.45 35.18 9.14 32.43 14.38 C 28.29 21.70 29.55 31.46 35.25 37.59 C 40.58 43.40 49.45 45.61 56.84 42.81 C 63.28 40.56 68.26 34.77 69.58 28.09 C 71.03 21.60 68.84 14.54 64.19 9.84 C 59.57 5.23 52.65 3.07 46.23 4.32 Z" />
<path fill="#ffffff" opacity="1.00" d=" M 8.54 6.65 C 14.51 2.06 23.31 0.27 30.18 3.83 C 32.04 4.28 31.20 6.85 29.90 7.38 C 26.57 6.85 23.27 5.52 19.85 6.17 C 11.49 7.06 4.44 14.50 4.08 22.92 C 3.46 30.97 9.02 38.90 16.76 41.16 C 21.10 42.78 25.66 41.59 29.98 40.59 C 30.42 41.29 31.28 42.69 31.72 43.39 C 24.80 47.68 15.53 46.44 9.11 41.79 C 4.12 38.30 1.17 32.64 0.00 26.78 L 0.00 21.49 C 1.02 15.75 3.80 10.19 8.54 6.65 Z" />
<path fill="#ffffff" opacity="1.00" d=" M 69.69 3.84 C 76.40 0.40 84.87 1.93 90.85 6.21 C 95.87 9.66 98.80 15.37 100.00 21.22 L 100.00 26.55 C 98.99 31.79 96.66 36.94 92.53 40.46 C 86.43 45.85 77.12 47.74 69.65 44.21 C 67.84 43.32 69.34 41.62 69.65 40.29 C 74.00 41.65 78.77 42.73 83.24 41.16 C 90.26 39.09 95.56 32.38 95.92 25.07 C 96.50 17.30 91.35 9.58 83.97 7.09 C 79.43 5.18 74.54 6.31 69.97 7.43 C 68.97 6.58 67.97 4.52 69.69 3.84 Z" />
<path fill="#ffffff" opacity="1.00" d=" M 40.22 18.06 C 42.72 11.33 52.64 9.48 57.62 14.47 C 59.13 15.85 59.68 17.88 60.40 19.73 C 58.99 19.74 57.58 19.74 56.18 19.74 C 55.10 16.80 52.29 14.45 49.00 15.34 C 43.36 16.23 42.26 23.55 43.84 28.07 C 44.82 31.92 49.65 34.03 53.12 32.09 C 55.06 31.01 55.60 28.71 56.33 26.79 C 57.66 26.77 59.00 26.76 60.34 26.76 C 59.80 32.39 54.53 36.89 48.83 35.89 C 40.62 35.21 36.78 24.88 40.22 18.06 Z" />
<path fill="#ffffff" opacity="1.00" d=" M 48.01 50.00 C 49.33 50.00 50.66 50.00 51.99 50.00 C 52.00 52.00 52.00 54.00 52.01 56.00 C 60.69 56.09 69.38 55.84 78.06 56.08 C 80.66 55.94 82.29 58.57 81.99 60.94 C 82.02 72.33 82.02 83.71 81.99 95.10 C 82.27 97.21 80.96 98.81 79.38 100.00 L 20.84 100.00 C 18.99 99.00 17.74 97.24 18.01 95.07 C 17.99 83.68 17.98 72.30 18.01 60.91 C 17.74 58.57 19.26 55.97 21.85 56.09 C 30.56 55.83 39.28 56.09 47.99 56.00 C 48.00 54.00 48.00 52.00 48.01 50.00 M 22.00 60.00 C 22.00 72.00 22.00 84.00 22.00 96.00 C 40.67 96.00 59.33 96.00 78.00 96.00 C 78.00 84.00 78.00 72.00 78.00 60.00 C 59.33 60.00 40.67 60.00 22.00 60.00 Z" />
<path fill="#ffffff" opacity="1.00" d=" M 25.30 73.16 C 38.63 60.97 61.35 60.98 74.69 73.15 C 70.50 78.80 66.24 84.39 61.99 90.00 C 54.00 90.00 46.01 90.00 38.01 90.00 C 33.73 84.42 29.52 78.79 25.30 73.16 M 30.82 73.77 C 33.89 77.84 36.94 81.93 40.01 86.00 C 46.67 86.00 53.33 86.00 60.00 86.00 C 63.05 81.93 66.11 77.86 69.15 73.79 C 58.09 65.95 41.91 66.00 30.82 73.77 Z" />
<path fill="#ffffff" opacity="1.00" d=" M 60.07 71.62 C 57.99 75.95 55.19 79.86 52.81 84.01 C 50.83 84.00 48.84 83.99 46.85 83.97 C 51.26 79.86 55.57 75.63 60.07 71.62 Z" />
</g>
</svg>
