<?xml version="1.0" encoding="UTF-8" ?>
<!DOCTYPE svg PUBLIC "-//W3C//DTD SVG 1.1//EN" "http://www.w3.org/Graphics/SVG/1.1/DTD/svg11.dtd">
<svg width="100pt" height="100pt" viewBox="0 0 100 100" version="1.1" xmlns="http://www.w3.org/2000/svg">
<g id="#ffffffff">
<path fill="#ffffff" opacity="1.00" d=" M 8.05 15.92 C 8.04 12.40 10.56 9.04 14.05 8.30 C 17.01 7.77 20.04 8.01 23.03 7.99 C 43.02 8.01 63.00 8.00 82.99 7.99 C 85.87 7.91 88.98 8.95 90.58 11.48 C 92.11 13.66 92.00 16.43 92.04 18.96 C 91.96 27.97 92.02 36.99 92.00 46.00 C 90.67 46.00 89.33 46.00 88.00 46.00 C 87.92 35.95 88.15 25.90 87.91 15.86 C 88.09 13.20 85.45 11.75 83.09 12.01 C 61.41 11.97 39.72 12.04 18.04 11.97 C 15.81 11.90 12.51 12.15 12.21 14.99 C 11.68 21.31 12.16 27.67 12.00 34.00 C 10.67 34.00 9.33 34.00 8.00 34.00 C 8.08 27.97 7.86 21.95 8.05 15.92 Z" />
<path fill="#ffffff" opacity="1.00" d=" M 16.23 17.20 C 16.71 15.64 18.73 16.21 19.93 15.98 C 39.61 15.99 59.29 16.05 78.97 15.96 C 80.48 15.99 82.04 16.00 83.48 16.54 C 84.09 18.30 84.02 20.18 84.05 22.02 C 83.95 30.01 84.02 38.01 84.00 46.00 C 82.67 46.00 81.33 46.00 80.00 46.00 C 80.00 37.33 80.00 28.67 80.00 20.00 C 60.00 20.00 40.00 20.00 20.00 20.00 C 20.01 24.67 19.99 29.33 20.00 34.00 C 18.67 34.00 17.33 34.00 16.00 34.00 C 16.18 28.40 15.64 22.77 16.23 17.20 Z" />
<path fill="#ffffff" opacity="1.00" d=" M 0.00 38.77 C 1.07 37.03 2.79 35.81 4.91 36.02 C 16.96 35.97 29.03 35.97 41.08 36.02 C 43.43 35.79 46.02 37.28 45.89 39.88 C 46.21 53.90 45.84 67.94 46.04 81.97 C 46.02 84.53 46.23 87.16 45.58 89.67 C 44.56 92.32 41.27 91.93 38.99 92.05 C 27.62 91.91 16.26 92.09 4.89 91.98 C 2.82 92.20 1.20 90.96 0.00 89.41 L 0.00 38.77 M 4.00 40.00 C 4.00 56.00 4.00 72.00 4.00 88.00 C 16.67 88.00 29.33 88.00 42.00 88.00 C 42.00 72.00 42.00 56.00 42.00 40.00 C 29.33 40.00 16.67 40.00 4.00 40.00 Z" />
<path fill="#ffffff" opacity="1.00" d=" M 7.16 42.24 C 16.40 41.63 25.70 42.22 34.97 41.96 C 36.61 42.22 39.84 41.42 39.84 43.92 C 40.27 53.93 39.83 63.97 40.03 74.00 C 39.97 76.50 40.33 79.12 39.42 81.51 C 35.71 82.49 31.82 81.85 28.03 81.99 C 21.34 81.87 14.63 82.26 7.95 81.85 C 5.71 82.09 6.14 79.49 5.98 78.03 C 6.01 67.35 6.01 56.67 5.98 45.99 C 6.22 44.79 5.63 42.74 7.16 42.24 M 10.00 46.00 C 10.00 56.67 10.00 67.33 10.00 78.00 C 18.67 78.00 27.33 78.00 36.00 78.00 C 36.00 67.33 36.00 56.67 36.00 46.00 C 27.33 46.00 18.67 46.00 10.00 46.00 Z" />
<path fill="#ffffff" opacity="1.00" d=" M 69.95 55.02 C 69.98 52.56 69.80 48.59 73.10 48.23 C 78.68 47.59 84.32 48.23 89.93 47.96 C 93.40 48.08 97.74 47.14 100.00 50.53 L 100.00 89.28 C 98.93 90.46 97.86 92.04 96.05 91.90 C 89.00 92.15 81.94 92.00 74.89 91.98 C 72.54 92.20 69.96 90.75 70.11 88.12 C 69.78 77.10 70.16 66.05 69.95 55.02 M 74.00 52.00 C 74.00 64.00 74.00 76.00 74.00 88.00 C 81.33 88.00 88.67 88.00 96.00 88.00 C 96.00 76.00 96.00 64.00 96.00 52.00 C 88.67 52.00 81.33 52.00 74.00 52.00 Z" />
<path fill="#ffffff" opacity="1.00" d=" M 77.13 54.23 C 82.08 53.80 87.10 53.87 92.06 54.16 C 94.56 54.12 93.78 57.33 94.04 58.97 C 93.61 66.46 94.76 74.12 93.44 81.50 C 87.88 82.35 81.99 82.36 76.43 81.48 C 75.55 77.73 76.13 73.84 76.01 70.03 C 76.15 65.03 75.66 60.00 76.24 55.03 C 76.46 54.83 76.91 54.43 77.13 54.23 M 80.00 58.00 C 80.00 64.67 80.00 71.33 80.00 78.00 C 83.33 78.00 86.67 78.00 90.00 78.00 C 90.00 71.33 90.00 64.67 90.00 58.00 C 86.67 58.00 83.33 58.00 80.00 58.00 Z" />
<path fill="#ffffff" opacity="1.00" d=" M 48.00 64.00 C 54.67 64.00 61.33 64.00 68.00 64.00 C 68.00 65.33 68.00 66.67 68.00 68.00 C 61.33 68.00 54.67 68.00 48.00 68.00 C 48.00 66.67 48.00 65.33 48.00 64.00 Z" />
<path fill="#ffffff" opacity="1.00" d=" M 58.00 70.00 C 61.33 70.00 64.67 70.00 68.00 70.00 C 68.00 71.33 68.00 72.66 68.00 74.00 C 66.00 74.00 64.00 74.00 62.00 74.00 C 62.00 74.50 62.00 75.50 62.00 76.00 C 64.00 76.00 66.00 76.00 68.00 76.00 C 68.00 77.33 68.00 78.67 68.00 80.00 C 64.67 80.00 61.33 80.00 58.00 80.00 C 58.00 76.67 58.00 73.33 58.00 70.00 Z" />
<path fill="#ffffff" opacity="1.00" d=" M 48.00 82.00 C 54.67 82.00 61.33 82.00 68.00 82.00 C 68.00 83.33 68.00 84.67 68.00 86.00 C 61.33 86.00 54.67 86.00 48.00 86.00 C 48.00 84.67 48.00 83.33 48.00 82.00 Z" />
<path fill="#ffffff" opacity="1.00" d=" M 22.22 83.10 C 24.56 82.16 26.24 85.99 23.71 86.77 C 21.53 87.97 19.76 84.19 22.22 83.10 Z" />
<path fill="#ffffff" opacity="1.00" d=" M 84.23 83.11 C 86.52 82.19 88.20 85.85 85.80 86.75 C 83.53 87.99 81.74 84.21 84.23 83.11 Z" />
</g>
</svg>
