<?xml version="1.0" encoding="UTF-8" ?>
<!DOCTYPE svg PUBLIC "-//W3C//DTD SVG 1.1//EN" "http://www.w3.org/Graphics/SVG/1.1/DTD/svg11.dtd">
<svg width="100pt" height="100pt" viewBox="0 0 100 100" version="1.1" xmlns="http://www.w3.org/2000/svg">
<g id="#ffffffff">
<path fill="#ffffff" opacity="1.00" d=" M 48.39 0.00 L 50.69 0.00 C 58.07 0.37 63.89 6.72 64.15 14.00 C 67.47 13.99 70.80 13.84 74.12 14.11 C 74.44 15.00 74.64 15.92 74.73 16.87 C 76.52 33.25 78.41 49.62 80.26 65.99 C 60.08 66.01 39.91 66.00 19.73 65.99 C 21.71 48.68 23.68 31.37 25.60 14.05 C 29.02 14.01 32.44 13.99 35.85 13.98 C 36.16 7.01 41.43 0.97 48.39 0.00 M 39.82 13.94 C 46.60 14.04 53.38 14.03 60.17 13.94 C 59.73 8.37 54.66 3.30 48.88 4.08 C 43.90 4.64 40.39 9.17 39.82 13.94 M 29.21 18.00 C 27.49 32.66 25.92 47.33 24.24 61.98 C 41.41 62.01 58.58 62.00 75.75 61.99 C 74.08 47.33 72.50 32.66 70.79 18.01 C 68.50 18.00 66.21 18.00 63.93 18.00 C 64.00 18.69 64.14 20.07 64.21 20.76 C 67.24 22.76 65.86 28.19 62.03 27.96 C 58.15 28.24 56.82 22.86 59.78 20.76 C 59.85 20.07 60.00 18.69 60.07 18.00 C 53.36 18.00 46.64 18.00 39.93 18.01 C 40.00 18.69 40.14 20.06 40.20 20.74 C 43.25 22.76 41.85 28.22 37.99 27.97 C 34.12 28.18 32.83 22.84 35.79 20.74 C 35.86 20.06 36.00 18.69 36.07 18.00 C 33.78 18.00 31.50 18.00 29.21 18.00 Z" />
<path fill="#ffffff" opacity="1.00" d=" M 0.00 60.87 C 5.03 58.50 10.00 55.97 15.14 53.85 C 16.79 52.78 19.21 55.15 17.74 56.64 C 14.28 59.05 10.15 60.25 6.44 62.22 C 20.95 70.72 35.48 79.20 50.00 87.68 C 64.54 79.19 79.09 70.70 93.61 62.19 C 89.86 60.29 85.76 59.04 82.25 56.68 C 81.43 55.16 82.88 54.22 83.77 53.23 C 89.16 55.84 94.68 58.16 100.00 60.91 L 100.00 70.96 C 83.67 80.92 67.00 90.36 50.47 100.00 L 49.56 100.00 C 33.00 90.42 16.38 80.89 0.00 70.99 L 0.00 60.87 M 3.98 65.50 C 4.00 66.36 4.04 68.08 4.06 68.94 C 19.45 77.72 34.67 86.80 50.00 95.68 C 65.33 86.80 80.55 77.72 95.94 68.94 C 95.96 68.08 96.00 66.36 96.02 65.50 C 81.81 73.78 67.60 82.04 53.42 90.37 C 52.32 90.99 51.21 91.63 49.99 92.02 C 47.69 91.21 45.67 89.79 43.56 88.60 C 30.38 80.87 17.18 73.19 3.98 65.50 Z" />
</g>
</svg>
