<?xml version="1.0" encoding="UTF-8" ?>
<!DOCTYPE svg PUBLIC "-//W3C//DTD SVG 1.1//EN" "http://www.w3.org/Graphics/SVG/1.1/DTD/svg11.dtd">
<svg width="100pt" height="100pt" viewBox="0 0 100 100" version="1.1" xmlns="http://www.w3.org/2000/svg">
<g id="#ffffffff">
<path fill="#ffffff" opacity="1.00" d=" M 40.87 0.00 L 44.96 0.00 C 63.29 0.73 80.17 14.33 84.57 32.17 C 86.30 37.53 85.56 43.22 86.17 48.69 C 91.73 58.08 98.91 67.23 100.00 78.48 L 100.00 81.48 C 98.94 90.91 91.22 99.17 81.61 100.00 L 79.51 100.00 C 69.79 99.86 61.91 91.91 60.12 82.66 C 48.47 87.27 34.88 87.19 23.67 81.36 C 10.07 74.60 0.78 60.31 0.00 45.15 L 0.00 41.05 C 0.59 30.45 5.07 20.09 12.67 12.63 C 20.06 5.07 30.36 0.68 40.87 0.00 M 27.40 7.30 C 15.08 12.55 6.01 24.59 4.37 37.88 C 3.09 47.07 5.34 56.67 10.44 64.40 C 16.58 73.85 27.01 80.34 38.20 81.67 C 45.61 82.66 53.20 81.26 59.98 78.20 C 60.28 76.48 60.59 74.76 60.92 73.04 C 56.34 75.57 51.33 77.42 46.08 77.81 C 30.24 79.58 14.25 68.84 9.67 53.62 C 5.04 39.85 10.27 23.61 21.98 15.05 C 33.76 5.88 51.45 5.71 63.42 14.62 C 72.62 21.09 77.92 32.12 78.16 43.27 C 78.61 42.63 79.51 41.35 79.96 40.71 C 80.50 41.38 81.58 42.71 82.11 43.37 C 81.95 32.11 77.16 20.87 68.50 13.54 C 57.49 3.80 40.80 1.22 27.40 7.30 M 39.20 12.24 C 25.69 13.69 14.08 25.05 12.34 38.52 C 10.12 51.98 18.08 66.13 30.61 71.42 C 41.07 76.09 54.06 74.25 62.77 66.79 C 64.81 64.68 65.74 61.79 67.27 59.33 C 69.05 55.93 71.59 52.97 73.18 49.48 C 74.68 43.47 73.99 37.00 71.69 31.27 C 66.70 18.61 52.71 10.33 39.20 12.24 M 65.25 73.08 C 63.61 77.37 63.61 82.27 65.59 86.45 C 68.63 93.73 77.58 97.91 85.05 95.10 C 93.14 92.43 97.80 82.84 95.27 74.78 C 92.13 64.75 86.34 55.75 79.97 47.49 C 74.01 55.33 68.59 63.77 65.25 73.08 Z" />
<path fill="#ffffff" opacity="1.00" d=" M 27.97 22.99 C 37.43 15.60 51.78 16.70 60.38 24.94 C 61.29 24.32 62.20 23.69 63.10 23.07 C 63.71 23.37 64.94 23.97 65.55 24.28 C 64.76 25.55 63.96 26.82 63.14 28.07 C 70.77 38.33 69.16 54.23 58.87 62.09 C 57.35 62.42 55.60 60.50 56.77 59.23 C 59.42 55.89 62.35 52.55 63.30 48.26 C 65.02 42.35 63.40 36.02 60.31 30.86 C 55.79 35.87 49.90 39.83 46.78 45.97 C 45.04 49.02 40.21 48.43 38.65 45.49 C 37.45 43.57 37.93 41.00 39.44 39.39 C 41.30 38.10 43.76 38.03 45.57 36.64 C 49.53 33.65 53.35 30.50 57.28 27.47 C 51.53 22.60 43.32 20.51 36.11 23.16 C 27.05 25.99 21.01 35.69 22.10 45.06 C 22.49 50.23 25.33 54.75 28.71 58.51 C 30.55 59.77 29.15 62.47 27.07 62.11 C 21.40 57.54 18.02 50.31 18.00 43.03 C 17.95 35.28 21.72 27.60 27.97 22.99 Z" />
<path fill="#ffffff" opacity="1.00" d=" M 74.68 62.69 C 75.53 61.01 77.63 61.87 78.38 63.15 C 76.45 68.84 72.28 73.82 72.01 80.03 C 72.07 83.05 74.24 85.35 75.90 87.67 C 75.00 88.41 74.29 89.57 73.02 89.69 C 69.08 86.71 67.11 81.42 68.41 76.61 C 69.70 71.67 71.97 67.00 74.68 62.69 Z" />
</g>
</svg>
