<?xml version="1.0" encoding="UTF-8" ?>
<!DOCTYPE svg PUBLIC "-//W3C//DTD SVG 1.1//EN" "http://www.w3.org/Graphics/SVG/1.1/DTD/svg11.dtd">
<svg width="100pt" height="100pt" viewBox="0 0 100 100" version="1.1" xmlns="http://www.w3.org/2000/svg">
<g id="#ffffffff">
<path fill="#ffffff" opacity="1.00" d=" M 47.46 6.67 C 61.23 3.41 76.31 12.96 79.19 26.81 C 81.00 36.89 79.79 48.11 73.48 56.50 C 68.35 63.32 62.54 69.68 58.28 77.14 C 55.96 80.90 54.40 85.16 51.52 88.56 C 46.64 93.89 38.12 95.49 31.67 92.21 C 25.99 89.52 21.94 83.41 22.15 77.08 C 21.99 75.29 24.09 74.62 25.38 75.51 C 26.35 78.77 26.55 82.44 28.93 85.10 C 32.71 90.01 40.07 91.38 45.43 88.33 C 48.55 86.82 50.25 83.68 51.80 80.75 C 55.73 73.31 60.33 66.22 65.81 59.83 C 70.12 54.71 74.54 49.14 75.38 42.27 C 76.23 35.49 76.69 28.05 73.06 21.94 C 69.06 14.38 60.47 9.58 51.94 10.09 C 41.55 10.39 32.01 18.72 30.47 29.02 C 30.06 30.99 30.19 33.19 29.02 34.91 C 27.42 35.29 26.21 34.68 26.17 32.95 C 25.74 20.58 35.40 9.02 47.46 6.67 Z" />
<path fill="#ffffff" opacity="1.00" d=" M 38.11 25.03 C 41.74 18.07 50.56 14.27 58.05 16.87 C 64.91 18.91 70.08 25.79 69.84 32.98 C 70.14 34.88 67.88 35.44 66.62 34.46 C 65.61 31.02 65.35 27.10 62.63 24.44 C 57.93 18.65 48.17 18.64 43.44 24.40 C 40.18 27.48 40.34 32.15 39.33 36.18 C 37.63 39.15 34.83 41.42 33.75 44.76 C 37.11 46.59 41.95 48.49 41.95 53.04 C 42.07 57.73 35.82 58.05 34.44 61.96 C 33.68 64.29 34.30 67.17 36.38 68.62 C 38.08 69.72 40.10 70.15 41.97 70.88 C 41.88 71.59 41.68 73.01 41.58 73.72 C 35.11 75.16 28.69 68.49 30.25 62.07 C 31.14 57.76 35.06 55.27 38.46 53.00 C 36.26 49.63 30.83 49.33 30.13 44.91 C 29.44 40.78 33.27 38.29 35.25 35.25 C 36.43 31.91 36.26 28.15 38.11 25.03 Z" />
</g>
</svg>
