<?xml version="1.0" encoding="UTF-8" ?>
<!DOCTYPE svg PUBLIC "-//W3C//DTD SVG 1.1//EN" "http://www.w3.org/Graphics/SVG/1.1/DTD/svg11.dtd">
<svg width="100pt" height="100pt" viewBox="0 0 100 100" version="1.1" xmlns="http://www.w3.org/2000/svg">
<g id="#ffffffff">
<path fill="#ffffff" opacity="1.00" d=" M 40.27 8.28 C 42.00 6.30 43.92 3.86 46.86 4.09 C 49.51 4.64 50.09 7.62 50.00 9.91 C 50.00 36.63 50.01 63.35 49.99 90.07 C 50.10 92.59 49.06 96.05 45.99 96.05 C 43.46 95.60 41.84 93.45 40.22 91.68 C 33.72 84.18 27.03 76.84 20.57 69.31 C 14.74 69.06 8.89 69.53 3.08 69.09 C 1.58 69.02 0.92 67.41 0.00 66.48 L 0.00 33.82 C 0.77 32.67 1.48 31.00 3.08 30.91 C 8.90 30.48 14.75 30.94 20.58 30.69 C 27.06 23.14 33.75 15.79 40.27 8.28 Z" />
<path fill="#ffffff" opacity="1.00" d=" M 70.99 14.98 C 70.91 12.25 74.61 10.89 76.67 12.30 C 90.01 18.79 99.10 32.76 100.00 47.53 L 100.00 52.49 C 99.05 67.82 89.23 82.41 75.00 88.41 C 70.97 89.30 68.79 82.34 72.94 81.03 C 80.83 77.16 87.11 70.25 90.13 62.00 C 95.82 47.26 89.82 28.98 76.18 20.86 C 74.04 19.43 70.58 18.17 70.99 14.98 Z" />
<path fill="#ffffff" opacity="1.00" d=" M 63.17 27.14 C 65.13 26.30 67.35 26.74 68.89 28.19 C 76.64 33.50 81.63 42.97 80.62 52.44 C 79.75 61.22 74.04 69.22 66.29 73.28 C 63.17 74.77 60.09 70.48 61.56 67.70 C 63.89 65.64 66.71 64.14 68.67 61.66 C 73.04 56.73 74.28 49.30 71.69 43.23 C 70.12 39.19 66.84 36.20 63.37 33.76 C 61.03 32.46 60.67 28.49 63.17 27.14 Z" />
</g>
</svg>
