<?xml version="1.0" encoding="UTF-8" ?>
<!DOCTYPE svg PUBLIC "-//W3C//DTD SVG 1.1//EN" "http://www.w3.org/Graphics/SVG/1.1/DTD/svg11.dtd">
<svg width="100pt" height="100pt" viewBox="0 0 100 100" version="1.1" xmlns="http://www.w3.org/2000/svg">
<g id="#ffffffff">
<path fill="#ffffff" opacity="1.00" d=" M 41.63 6.66 C 46.34 3.39 52.89 3.16 57.77 6.21 C 64.35 10.28 68.06 17.48 70.92 24.42 C 78.35 24.55 86.31 25.88 92.17 30.81 C 96.75 34.64 98.36 41.26 96.58 46.88 C 94.41 53.85 89.26 59.41 83.72 63.95 C 85.45 71.11 86.66 78.90 84.05 86.00 C 82.40 90.66 78.09 94.25 73.16 94.84 C 65.03 95.92 56.97 92.76 50.30 88.32 C 44.19 92.85 36.83 96.61 29.00 95.87 C 22.72 95.24 17.49 90.25 15.65 84.36 C 13.57 77.72 14.50 70.60 16.35 64.03 C 10.87 59.97 5.74 54.85 3.62 48.20 C 1.42 41.75 3.49 34.02 8.89 29.77 C 14.59 25.16 22.27 24.26 29.36 24.19 C 32.00 17.54 35.59 10.80 41.63 6.66 M 43.93 9.96 C 37.68 14.24 34.53 21.55 32.07 28.45 C 25.32 27.93 18.02 28.44 12.18 32.20 C 7.22 35.42 5.49 42.24 7.60 47.63 C 9.96 54.09 15.50 58.68 21.09 62.34 C 18.89 68.88 17.42 76.09 19.40 82.87 C 20.77 87.59 24.82 91.73 29.92 91.98 C 37.47 92.12 44.12 87.77 50.02 83.52 C 56.63 87.67 64.12 91.67 72.17 90.94 C 76.43 90.61 79.95 87.13 80.84 83.04 C 82.48 76.17 81.02 69.04 79.06 62.40 C 84.84 58.10 90.54 52.82 92.73 45.73 C 94.17 41.26 92.73 35.92 88.79 33.21 C 82.82 28.93 75.13 28.32 68.01 28.47 C 65.73 21.66 62.53 14.69 56.65 10.26 C 53.02 7.45 47.69 7.29 43.93 9.96 Z" />
<path fill="#ffffff" opacity="1.00" d=" M 47.79 37.72 C 48.26 35.39 52.21 35.66 52.33 38.08 C 53.18 42.12 51.86 46.18 50.98 50.10 C 54.35 47.91 57.88 45.39 62.02 45.09 C 63.41 45.01 64.22 46.42 65.27 47.09 C 62.79 52.12 56.13 51.40 51.43 51.82 C 54.55 54.54 58.30 57.13 59.83 61.14 C 60.74 63.23 57.97 65.37 56.22 63.86 C 52.88 61.21 51.64 56.88 50.00 53.12 C 48.24 56.87 46.84 61.04 43.69 63.88 C 41.88 65.24 39.39 63.24 40.37 61.20 C 41.84 57.19 45.43 54.51 48.56 51.82 C 43.83 51.43 37.28 52.07 34.71 47.11 C 38.85 42.34 44.97 47.82 49.02 50.10 C 48.15 46.08 46.61 41.83 47.79 37.72 Z" />
</g>
</svg>
