<?xml version="1.0" encoding="UTF-8" ?>
<!DOCTYPE svg PUBLIC "-//W3C//DTD SVG 1.1//EN" "http://www.w3.org/Graphics/SVG/1.1/DTD/svg11.dtd">
<svg width="100pt" height="100pt" viewBox="0 0 100 100" version="1.1" xmlns="http://www.w3.org/2000/svg">
<g id="#ffffffff">
<path fill="#ffffff" opacity="1.00" d=" M 84.55 5.82 C 85.20 2.44 88.27 -0.76 91.96 0.45 C 96.37 1.55 97.24 8.07 93.40 10.41 C 90.68 12.45 87.42 10.61 85.27 8.67 C 64.08 15.08 42.84 21.29 21.69 27.83 C 21.87 28.56 22.23 30.03 22.41 30.76 C 43.61 30.73 64.81 30.79 86.02 30.73 C 89.11 30.72 92.43 30.94 95.02 32.84 C 97.91 34.72 99.46 38.02 100.00 41.34 L 100.00 89.65 C 99.29 94.98 95.00 99.28 89.67 100.00 L 10.34 100.00 C 5.02 99.29 0.72 94.99 0.00 89.67 L 0.00 40.67 C 0.78 36.20 4.11 32.88 8.15 31.10 C 8.75 29.22 9.00 27.02 10.64 25.69 C 13.41 22.84 17.68 24.59 21.09 23.44 C 42.22 17.48 63.41 11.76 84.55 5.82 M 11.51 38.51 C 11.48 43.57 11.54 48.63 11.46 53.69 C 28.17 53.74 44.90 53.90 61.61 53.61 C 61.40 48.58 61.54 43.54 61.49 38.51 C 44.83 38.50 28.17 38.50 11.51 38.51 M 65.51 38.51 C 65.48 43.57 65.55 48.62 65.45 53.68 C 73.17 53.76 80.89 53.88 88.61 53.61 C 88.40 48.58 88.54 43.54 88.49 38.51 C 80.83 38.50 73.17 38.50 65.51 38.51 M 72.45 65.65 C 68.15 67.28 65.11 71.54 64.82 76.12 C 64.20 82.88 70.19 89.32 77.01 89.04 C 84.19 89.17 90.28 81.95 88.86 74.89 C 87.87 67.54 79.27 62.69 72.45 65.65 M 11.95 65.91 C 10.95 72.49 11.73 79.30 11.52 85.97 C 11.00 88.41 14.75 89.63 15.29 86.97 C 15.72 80.68 15.48 74.34 15.44 68.04 C 15.86 65.95 13.59 64.70 11.95 65.91 M 19.46 66.25 C 19.04 73.14 19.24 80.08 19.35 86.99 C 19.31 88.78 22.97 89.04 22.88 87.00 C 23.06 80.01 23.16 72.99 22.81 66.01 C 21.59 65.16 20.47 65.24 19.46 66.25 M 27.19 66.01 C 26.84 73.02 26.94 80.06 27.12 87.07 C 27.16 89.07 30.70 88.74 30.66 86.97 C 30.83 80.34 30.81 73.69 30.67 67.06 C 30.68 65.28 28.33 65.03 27.19 66.01 M 34.56 68.03 C 34.45 73.99 34.43 79.96 34.57 85.91 C 34.19 87.65 36.56 89.63 37.87 87.88 C 38.92 86.48 38.36 84.63 38.53 83.03 C 38.31 77.21 38.89 71.36 38.14 65.57 C 36.39 65.27 34.17 65.74 34.56 68.03 M 42.59 66.41 C 41.76 71.52 42.51 76.83 42.23 82.02 C 42.50 84.21 41.30 87.42 43.90 88.56 C 46.37 88.63 46.31 85.79 46.27 84.07 C 46.12 78.41 46.50 72.73 46.07 67.08 C 46.22 65.30 43.21 64.66 42.59 66.41 M 50.11 66.93 C 49.85 73.31 50.03 79.71 50.02 86.10 C 49.64 88.26 52.29 88.97 53.72 87.82 C 53.71 80.88 53.85 73.93 53.68 66.99 C 53.89 64.98 50.21 64.87 50.11 66.93 Z" />
<path fill="#ffffff" opacity="1.00" d=" M 74.30 70.45 C 79.08 68.28 84.97 73.00 83.73 78.16 C 83.14 83.50 75.63 85.82 72.05 81.88 C 68.46 78.61 69.80 72.15 74.30 70.45 Z" />
</g>
</svg>
