<?xml version="1.0" encoding="UTF-8" ?>
<!DOCTYPE svg PUBLIC "-//W3C//DTD SVG 1.1//EN" "http://www.w3.org/Graphics/SVG/1.1/DTD/svg11.dtd">
<svg width="100pt" height="100pt" viewBox="0 0 100 100" version="1.1" xmlns="http://www.w3.org/2000/svg">
<g id="#settings">
<path fill="#ffffff" opacity="1.00" d=" M 42.26 0.00 L 57.58 0.00 C 58.46 4.94 59.32 9.88 60.20 14.81 C 62.77 15.72 65.30 16.74 67.82 17.81 C 71.86 14.90 75.85 11.91 79.97 9.10 C 83.58 12.71 87.18 16.31 90.78 19.91 C 87.89 24.05 84.99 28.18 82.11 32.32 C 83.27 34.76 84.31 37.27 85.21 39.82 C 90.14 40.67 95.09 41.31 100.00 42.26 L 100.00 57.58 C 95.06 58.47 90.12 59.31 85.18 60.18 C 84.22 62.72 83.21 65.23 82.12 67.70 C 85.04 71.79 88.06 75.82 90.90 79.97 C 87.30 83.57 83.69 87.18 80.08 90.78 C 75.98 87.89 71.83 85.06 67.77 82.11 C 65.27 83.25 62.73 84.32 60.17 85.31 C 59.27 90.21 58.53 95.13 57.53 100.00 L 42.21 100.00 C 41.38 95.10 40.58 90.21 39.76 85.31 C 37.18 84.31 34.62 83.28 32.08 82.17 C 28.10 85.03 24.08 87.85 20.07 90.68 C 16.42 87.06 12.78 83.42 9.16 79.77 C 11.99 75.78 15.02 71.93 17.61 67.79 C 16.82 65.19 15.54 62.76 14.61 60.21 C 9.76 59.24 4.85 58.54 0.00 57.56 L 0.00 42.22 C 4.89 41.39 9.78 40.58 14.67 39.77 C 15.62 37.22 16.65 34.70 17.79 32.23 C 14.97 28.17 12.17 24.11 9.32 20.07 C 12.93 16.43 16.55 12.80 20.21 9.20 C 24.21 12.07 28.24 14.91 32.26 17.77 C 34.74 16.67 37.26 15.69 39.83 14.80 C 40.66 9.87 41.31 4.91 42.26 0.00 M 43.33 17.79 C 39.30 18.72 35.45 20.28 31.93 22.45 C 28.14 19.74 24.35 17.04 20.54 14.36 C 18.66 16.49 16.00 18.20 14.73 20.67 C 17.19 24.46 19.90 28.07 22.44 31.81 C 20.36 35.41 18.66 39.24 17.71 43.30 C 13.15 44.15 8.57 44.85 4.00 45.62 C 4.00 48.49 4.00 51.35 4.00 54.22 C 8.55 55.09 13.12 55.80 17.66 56.69 C 18.61 60.74 20.36 64.53 22.42 68.12 C 19.69 71.88 17.02 75.68 14.30 79.46 C 16.32 81.44 18.33 83.43 20.27 85.49 C 24.25 82.98 27.97 80.10 31.93 77.56 C 35.40 79.70 39.21 81.26 43.19 82.17 C 44.15 86.76 44.75 91.41 45.61 96.01 C 48.48 96.00 51.35 96.00 54.23 95.99 C 55.04 91.48 55.87 86.97 56.54 82.44 C 60.51 81.17 64.43 79.70 68.00 77.50 C 71.93 80.10 75.71 82.91 79.65 85.51 C 81.65 83.49 83.65 81.48 85.64 79.46 C 82.91 75.65 80.17 71.85 77.48 68.01 C 79.53 64.50 81.12 60.73 82.05 56.76 C 86.66 55.75 91.35 55.13 95.99 54.22 C 95.98 51.42 96.10 48.62 95.96 45.82 C 91.49 44.52 86.70 44.34 82.13 43.33 C 81.10 39.35 79.57 35.53 77.49 31.99 C 80.09 28.11 82.79 24.31 85.51 20.53 C 83.58 18.38 81.52 16.35 79.43 14.35 C 75.61 17.05 71.86 19.85 68.02 22.51 C 64.46 20.37 60.62 18.75 56.60 17.70 C 55.85 13.13 55.07 8.56 54.22 4.01 C 51.35 4.00 48.48 4.00 45.61 4.00 C 44.87 8.60 44.10 13.19 43.33 17.79 Z" />
<path fill="#ffffff" opacity="1.00" d=" M 45.47 32.61 C 53.92 30.23 63.56 35.13 66.63 43.33 C 69.44 49.78 67.68 57.77 62.69 62.65 C 57.80 67.69 49.78 69.42 43.30 66.64 C 36.27 63.93 31.50 56.42 32.08 48.91 C 32.44 41.33 38.12 34.45 45.47 32.61 M 46.41 36.49 C 39.69 38.13 34.96 45.30 36.20 52.13 C 37.09 59.18 44.07 64.66 51.13 63.92 C 58.94 63.51 65.24 55.59 63.79 47.88 C 62.84 39.91 54.11 34.20 46.41 36.49 Z" />
</g>
</svg>
