<?xml version="1.0" encoding="UTF-8" ?>
<!DOCTYPE svg PUBLIC "-//W3C//DTD SVG 1.1//EN" "http://www.w3.org/Graphics/SVG/1.1/DTD/svg11.dtd">
<svg width="100pt" height="100pt" viewBox="0 0 100 100" version="1.1" xmlns="http://www.w3.org/2000/svg">
<g id="#ffffffff">
<path fill="#ffffff" opacity="1.00" d=" M 49.14 0.00 L 50.64 0.00 C 54.64 0.42 59.34 1.74 61.08 5.79 C 62.52 9.66 61.89 13.90 62.00 17.94 C 64.48 18.00 67.02 17.81 69.43 18.49 C 69.67 19.53 69.87 20.59 70.02 21.66 C 67.35 21.88 64.68 22.03 62.00 22.07 C 62.00 23.36 62.00 24.65 62.00 25.94 C 64.48 26.01 67.03 25.79 69.45 26.50 C 69.68 27.55 69.87 28.60 70.01 29.66 C 67.34 29.88 64.67 30.03 62.00 30.07 C 62.00 31.35 62.00 32.64 62.00 33.92 C 64.52 33.97 67.03 34.12 69.54 34.30 C 69.69 35.06 69.97 36.58 70.12 37.34 C 67.45 37.94 64.72 38.09 62.00 38.08 C 62.00 39.36 62.00 40.65 62.00 41.93 C 64.62 41.98 67.25 42.12 69.87 42.30 C 69.79 43.37 69.67 44.42 69.52 45.48 C 67.08 46.21 64.50 46.00 62.00 46.06 C 62.00 47.35 62.00 48.63 62.00 49.92 C 64.65 49.97 67.30 50.12 69.95 50.36 C 69.83 51.41 69.67 52.45 69.47 53.49 C 66.85 54.22 64.09 54.00 61.41 54.18 C 63.92 57.18 67.42 59.21 69.62 62.48 C 75.46 70.30 75.21 81.79 69.66 89.69 C 65.55 95.85 58.33 99.42 51.05 100.00 L 49.22 100.00 C 43.92 99.61 38.69 97.78 34.61 94.31 C 26.83 88.07 24.01 76.64 27.65 67.41 C 29.60 62.36 33.58 58.46 37.93 55.42 C 38.09 40.92 37.96 26.42 37.99 11.93 C 38.07 9.42 38.12 6.70 39.63 4.57 C 41.67 1.40 45.67 0.54 49.14 0.00 M 42.41 7.23 C 42.00 10.81 41.91 14.41 42.00 18.00 C 47.33 18.00 52.66 18.00 58.00 18.00 C 57.55 13.89 59.46 8.28 55.54 5.44 C 51.43 3.13 45.65 3.61 42.41 7.23 M 42.00 22.00 C 41.96 33.38 42.07 44.76 41.96 56.14 C 42.18 57.78 40.31 58.39 39.33 59.30 C 33.07 63.17 29.25 70.81 30.19 78.15 C 30.53 82.95 33.05 87.37 36.46 90.67 C 41.95 95.92 50.60 97.40 57.58 94.46 C 64.61 91.73 69.68 84.59 69.90 77.05 C 70.32 71.69 68.09 66.31 64.50 62.39 C 62.67 60.31 59.94 59.24 58.14 57.13 C 57.79 45.43 58.11 33.71 58.00 22.00 C 52.67 22.00 47.33 22.00 42.00 22.00 Z" />
</g>
</svg>
