<?xml version="1.0" encoding="UTF-8" ?>
<!DOCTYPE svg PUBLIC "-//W3C//DTD SVG 1.1//EN" "http://www.w3.org/Graphics/SVG/1.1/DTD/svg11.dtd">
<svg width="100pt" height="100pt" viewBox="0 0 100 100" version="1.1" xmlns="http://www.w3.org/2000/svg">
<g id="#000000ff">
<path fill="#000000" opacity="1.00" d=" M 32.14 10.08 C 32.10 8.25 33.90 7.98 35.31 7.85 C 36.29 12.07 36.26 16.48 35.75 20.76 C 35.41 22.36 33.67 22.00 32.56 21.55 C 31.53 17.84 31.95 13.88 32.14 10.08 Z" />
<path fill="#000000" opacity="1.00" d=" M 10.47 17.59 C 10.77 17.54 11.37 17.44 11.66 17.39 C 14.77 19.53 17.35 22.38 19.91 25.14 C 21.43 26.16 19.53 29.55 17.85 28.22 C 15.00 26.50 12.89 23.78 10.57 21.44 C 9.30 20.43 8.83 18.50 10.47 17.59 Z" />
<path fill="#000000" opacity="1.00" d=" M 55.70 17.67 C 57.32 16.41 58.41 18.42 59.07 19.63 C 56.13 22.88 53.04 26.00 49.71 28.85 C 48.57 28.19 47.83 27.23 47.49 25.99 C 49.89 22.92 52.67 20.11 55.70 17.67 Z" />
<path fill="#000000" opacity="1.00" d=" M 30.35 26.66 C 35.12 25.41 40.44 26.86 44.25 29.90 C 45.85 30.85 44.87 33.36 43.11 33.31 C 39.83 31.94 36.69 29.59 32.92 30.11 C 25.88 30.54 20.45 38.04 22.40 44.87 C 23.08 48.60 26.27 50.85 28.77 53.35 C 30.07 54.16 28.44 56.82 27.05 56.12 C 20.17 53.31 16.54 44.75 18.64 37.72 C 20.17 32.26 24.86 27.95 30.35 26.66 Z" />
<path fill="#000000" opacity="1.00" d=" M 42.06 40.04 C 47.49 32.52 58.53 29.80 66.77 34.13 C 71.91 36.61 75.24 41.55 77.17 46.76 C 80.98 45.98 85.06 45.72 88.70 47.35 C 95.10 49.80 99.43 56.16 100.00 62.92 L 100.00 64.84 C 99.58 74.13 91.39 82.14 82.03 81.95 C 67.99 82.04 53.93 82.05 39.89 81.94 C 31.73 82.11 24.75 74.12 26.20 66.04 C 26.82 59.86 32.40 55.82 37.96 54.19 C 38.02 49.22 38.84 44.02 42.06 40.04 M 44.93 42.87 C 41.65 47.21 41.64 52.93 42.89 58.01 C 40.39 58.09 37.67 57.81 35.46 59.23 C 31.22 61.33 28.83 66.73 30.59 71.22 C 32.05 75.00 35.75 78.04 39.92 77.96 C 53.29 78.08 66.67 77.94 80.04 78.02 C 83.87 78.16 87.90 77.42 90.88 74.84 C 97.47 69.84 97.65 58.92 91.35 53.61 C 86.76 49.24 79.69 49.30 74.26 52.01 C 73.58 47.19 71.80 42.21 67.68 39.28 C 60.83 33.80 49.76 35.55 44.93 42.87 Z" />
<path fill="#000000" opacity="1.00" d=" M 0.00 40.54 C 4.40 39.75 9.01 39.55 13.40 40.50 C 13.67 41.53 13.89 42.57 14.08 43.61 C 9.41 44.20 4.67 44.17 0.00 43.61 L 0.00 40.54 Z" />
<path fill="#000000" opacity="1.00" d=" M 16.56 56.59 C 17.92 55.09 19.81 55.10 20.62 57.16 C 19.16 60.57 15.94 62.74 13.43 65.34 C 12.21 66.91 10.25 67.09 9.34 65.09 C 10.47 61.48 14.03 59.26 16.56 56.59 Z" />
</g>
</svg>
