<?xml version="1.0" encoding="UTF-8" ?>
<!DOCTYPE svg PUBLIC "-//W3C//DTD SVG 1.1//EN" "http://www.w3.org/Graphics/SVG/1.1/DTD/svg11.dtd">
<svg width="70pt" height="50pt" viewBox="0 0 70 50" version="1.1" xmlns="http://www.w3.org/2000/svg">
<g id="#ffffffff">
<path fill="#ffffff" opacity="1.00" d=" M 0.00 14.49 C 8.23 6.84 18.85 1.65 30.12 0.71 C 44.62 -0.88 59.47 4.50 70.00 14.52 L 70.00 15.17 C 68.15 17.09 66.21 18.95 64.36 20.87 C 55.66 12.33 43.21 7.72 31.04 9.00 C 21.53 9.85 12.47 14.21 5.67 20.87 C 3.78 18.95 1.84 17.09 0.00 15.13 L 0.00 14.49 Z" />
<path fill="#ffffff" opacity="1.00" d=" M 11.12 26.21 C 23.64 13.45 46.53 13.24 58.83 26.39 C 56.84 28.21 54.95 30.12 53.05 32.02 C 46.96 26.30 38.12 23.37 29.88 25.26 C 25.00 26.16 20.61 28.73 16.95 32.01 C 15.00 30.09 13.06 28.15 11.12 26.21 Z" />
<path fill="#ffffff" opacity="1.00" d=" M 20.97 36.03 C 28.60 28.77 41.41 28.77 49.04 36.04 C 47.06 37.99 45.16 40.03 43.10 41.90 C 38.66 37.73 31.36 37.70 26.92 41.89 C 24.83 40.05 22.95 37.99 20.97 36.03 Z" />
<path fill="#ffffff" opacity="1.00" d=" M 30.81 45.85 C 33.45 44.20 36.55 44.22 39.21 45.84 C 37.85 47.25 36.48 48.66 35.05 50.00 L 34.89 50.00 C 33.52 48.62 32.16 47.24 30.81 45.85 Z" />
</g>
</svg>
