<?xml version="1.0" encoding="UTF-8" ?>
<!DOCTYPE svg PUBLIC "-//W3C//DTD SVG 1.1//EN" "http://www.w3.org/Graphics/SVG/1.1/DTD/svg11.dtd">
<svg width="70pt" height="50pt" viewBox="0 0 70 50" version="1.1" xmlns="http://www.w3.org/2000/svg">
<g id="#29abe2ff">
<path fill="#29abe2" opacity="1.00" d=" M 0.00 14.57 C 8.19 6.86 18.85 1.72 30.10 0.74 C 44.61 -0.84 59.50 4.52 70.00 14.59 L 70.00 15.10 C 68.15 17.05 66.20 18.91 64.32 20.84 C 58.06 14.70 49.88 10.49 41.18 9.26 C 28.38 7.17 14.84 11.74 5.67 20.84 C 3.80 18.91 1.85 17.05 0.00 15.10 L 0.00 14.57 Z" />
<path fill="#29abe2" opacity="1.00" d=" M 11.08 26.24 C 23.61 13.33 46.38 13.34 58.92 26.24 C 56.96 28.17 55.01 30.12 53.06 32.06 C 47.20 26.61 38.87 23.64 30.90 25.11 C 25.64 25.89 20.86 28.54 16.94 32.07 C 14.99 30.12 13.04 28.17 11.08 26.24 Z" />
<path fill="#29abe2" opacity="1.00" d=" M 20.93 36.05 C 28.53 28.71 41.47 28.71 49.08 36.05 C 47.07 38.01 45.19 40.09 43.08 41.94 C 38.60 37.71 31.32 37.85 26.81 41.95 C 24.85 39.98 22.88 38.02 20.93 36.05 Z" />
<path fill="#29abe2" opacity="1.00" d=" M 31.24 45.56 C 33.53 44.18 36.40 44.15 38.70 45.52 C 38.74 47.53 36.20 48.55 35.09 50.00 L 34.91 50.00 C 33.74 48.57 31.40 47.55 31.24 45.56 Z" />
</g>
</svg>
