<?xml version="1.0" encoding="UTF-8" ?>
<!DOCTYPE svg PUBLIC "-//W3C//DTD SVG 1.1//EN" "http://www.w3.org/Graphics/SVG/1.1/DTD/svg11.dtd">
<svg width="70pt" height="50pt" viewBox="0 0 70 50" version="1.1" xmlns="http://www.w3.org/2000/svg">
<g id="#ffffffff">
<path fill="#ffffff" opacity="1.00" d=" M 0.00 14.54 C 7.96 7.09 18.19 1.99 29.07 0.84 C 43.89 -1.09 59.25 4.25 70.00 14.56 L 70.00 15.13 C 68.15 17.08 66.20 18.93 64.32 20.86 C 58.06 14.71 49.88 10.50 41.17 9.27 C 28.38 7.19 14.84 11.75 5.68 20.86 C 3.80 18.93 1.86 17.07 0.00 15.13 L 0.00 14.54 Z" />
<path fill="#ffffff" opacity="1.00" d=" M 11.07 26.25 C 23.58 13.31 46.42 13.31 58.93 26.25 C 56.97 28.18 55.02 30.14 53.06 32.09 C 47.45 26.88 39.65 23.92 31.98 24.97 C 26.33 25.58 21.11 28.30 16.94 32.09 C 14.98 30.14 13.03 28.19 11.07 26.25 Z" />
<path fill="#ffffff" opacity="1.00" d=" M 21.01 36.05 C 24.91 32.78 29.79 30.44 34.98 30.54 C 40.18 30.43 45.07 32.77 48.99 36.05 C 47.00 37.97 45.14 40.04 43.05 41.87 C 38.70 37.60 31.27 37.65 26.91 41.88 C 24.88 40.00 22.98 37.98 21.01 36.05 Z" />
<path fill="#ffffff" opacity="1.00" d=" M 30.89 45.83 C 33.48 44.19 36.55 44.27 39.13 45.87 C 37.78 47.26 36.43 48.66 35.03 50.00 L 34.98 50.00 C 33.55 48.68 32.22 47.26 30.89 45.83 Z" />
</g>
</svg>
