<?xml version="1.0" encoding="UTF-8" standalone="no"?>
<svg
   xmlns:dc="http://purl.org/dc/elements/1.1/"
   xmlns:cc="http://creativecommons.org/ns#"
   xmlns:rdf="http://www.w3.org/1999/02/22-rdf-syntax-ns#"
   xmlns:svg="http://www.w3.org/2000/svg"
   xmlns="http://www.w3.org/2000/svg"
   id="svg4762"
   version="1.1"
   viewBox="0 0 57.6 57.6"
   height="72"
   width="72">
  <metadata
     id="metadata4777">
    <rdf:RDF>
      <cc:Work
         rdf:about="">
        <dc:format>image/svg+xml</dc:format>
        <dc:type
           rdf:resource="http://purl.org/dc/dcmitype/StillImage" />
        <dc:title></dc:title>
      </cc:Work>
    </rdf:RDF>
  </metadata>
  <defs
     id="defs4775" />
  <g
     transform="matrix(0.70710678,0.70710678,-0.70710678,0.70710678,14.321531,-6.3687352)"
     style="fill:#000000"
     id="#ffffffff">
    <path
       style="opacity:1;fill:#000000"
       id="path4765"
       d="M -0.23834745,14.91428 C 20.66282,-5.8188313 49.351017,-5.9236007 70.327711,14.880258 68.546149,16.67182 65.985108,19.135656 64.32,20.85 46.98032,4.3766969 23.42214,3.7940639 5.68,20.85 3.5652607,18.642757 1.7901962,16.930263 -0.23834745,14.91428 Z" />
    <path
       style="opacity:1;fill:#000000"
       id="path4767"
       d="m 11.08,26.24 c 13.430424,-13.343729 33.244322,-14.657882 47.84,0 -1.97,1.93 -3.91,3.89 -5.86,5.83 -10.133248,-9.599908 -25.160253,-10.271435 -36.12,0 -1.95,-1.94 -3.89,-3.9 -5.86,-5.83 z" />
    <path
       style="opacity:1;fill:#000000"
       id="path4769"
       d="m 20.94,36.06 c 7.824831,-7.836695 20.718898,-7.465932 28.12,0.01 -1.95,1.96 -3.92,3.93 -5.88,5.89 -4.52,-4.19 -11.84,-4.18 -16.36,0 -1.96,-1.96 -3.93,-3.93 -5.88,-5.9 z" />
    <path
       style="opacity:1;fill:#000000"
       id="path4771"
       d="m 30.683792,45.865932 c 2.712966,-2.68339 6.257109,-2.458146 8.652278,-0.0066 -1.552712,1.548684 -4.360551,4.31945 -4.360551,4.31945 0,0 -2.895932,-2.908899 -4.291727,-4.312828 z" />
  </g>
</svg>
