<?xml version="1.0" encoding="UTF-8" ?>
<!DOCTYPE svg PUBLIC "-//W3C//DTD SVG 1.1//EN" "http://www.w3.org/Graphics/SVG/1.1/DTD/svg11.dtd">
<svg width="70pt" height="50pt" viewBox="0 0 70 50" version="1.1" xmlns="http://www.w3.org/2000/svg">
<g id="#cacbceff">
<path fill="#cacbce" opacity="1.00" d=" M 0.00 14.57 C 7.93 7.10 18.18 2.02 29.06 0.85 C 43.88 -1.07 59.27 4.26 70.00 14.59 L 70.00 15.12 C 68.13 17.05 66.19 18.92 64.32 20.85 C 55.16 11.71 41.59 7.17 28.80 9.26 C 20.11 10.50 11.92 14.69 5.68 20.85 C 3.81 18.92 1.87 17.05 0.00 15.11 L 0.00 14.57 Z" />
<path fill="#cacbce" opacity="1.00" d=" M 11.08 26.24 C 23.61 13.32 46.39 13.33 58.92 26.24 C 56.95 28.17 55.01 30.13 53.06 32.07 C 47.21 26.62 38.91 23.66 30.95 25.11 C 25.68 25.87 20.86 28.52 16.94 32.07 C 14.99 30.13 13.05 28.17 11.08 26.24 Z" />
<path fill="#cacbce" opacity="1.00" d=" M 20.94 36.06 C 28.50 28.70 41.50 28.70 49.06 36.07 C 47.11 38.03 45.14 40.00 43.18 41.96 C 38.66 37.77 31.34 37.78 26.82 41.96 C 24.86 40.00 22.89 38.03 20.94 36.06 Z" />
<path fill="#cacbce" opacity="1.00" d=" M 30.75 45.76 C 33.41 44.03 36.59 44.05 39.25 45.76 C 37.97 47.25 36.66 48.71 35.18 50.00 L 34.81 50.00 C 33.34 48.70 32.02 47.25 30.75 45.76 Z" />
</g>
</svg>
