<?xml version="1.0" encoding="UTF-8" standalone="no"?>
<svg
   xmlns:dc="http://purl.org/dc/elements/1.1/"
   xmlns:cc="http://creativecommons.org/ns#"
   xmlns:rdf="http://www.w3.org/1999/02/22-rdf-syntax-ns#"
   xmlns:svg="http://www.w3.org/2000/svg"
   xmlns="http://www.w3.org/2000/svg"
   xmlns:sodipodi="http://sodipodi.sourceforge.net/DTD/sodipodi-0.dtd"
   xmlns:inkscape="http://www.inkscape.org/namespaces/inkscape"
   width="72"
   height="72"
   viewBox="0 0 57.6 57.6"
   version="1.1"
   id="svg4762"
   inkscape:version="0.91 r13725"
   sodipodi:docname="wifi_0.svg">
  <metadata
     id="metadata4777">
    <rdf:RDF>
      <cc:Work
         rdf:about="">
        <dc:format>image/svg+xml</dc:format>
        <dc:type
           rdf:resource="http://purl.org/dc/dcmitype/StillImage" />
        <dc:title></dc:title>
      </cc:Work>
    </rdf:RDF>
  </metadata>
  <defs
     id="defs4775" />
  <sodipodi:namedview
     pagecolor="#ffffff"
     bordercolor="#666666"
     borderopacity="1"
     objecttolerance="10"
     gridtolerance="10"
     guidetolerance="10"
     inkscape:pageopacity="0"
     inkscape:pageshadow="2"
     inkscape:window-width="1611"
     inkscape:window-height="927"
     id="namedview4773"
     showgrid="false"
     units="px"
     inkscape:zoom="10.680141"
     inkscape:cx="39.308168"
     inkscape:cy="35.979198"
     inkscape:window-x="160"
     inkscape:window-y="45"
     inkscape:window-maximized="0"
     inkscape:current-layer="svg4762" />
  <g
     id="#ffffffff"
     style="fill:#000000"
     transform="matrix(0.70710678,0.70710678,-0.70710678,0.70710678,14.321531,-6.3687352)">
    <path
       d="M -0.23834745,14.91428 C 20.66282,-5.8188313 49.351017,-5.9236007 70.327711,14.880258 68.546149,16.67182 65.985108,19.135656 64.32,20.85 46.98032,4.3766969 23.42214,3.7940639 5.68,20.85 3.5652607,18.642757 1.7901962,16.930263 -0.23834745,14.91428 Z"
       id="path4765"
       style="opacity:1;fill:none;stroke:#ffffff;stroke-opacity:1"
       inkscape:connector-curvature="0"
       sodipodi:nodetypes="ccccc" />
    <path
       d="m 11.08,26.24 c 13.430424,-13.343729 33.244322,-14.657882 47.84,0 -1.97,1.93 -3.91,3.89 -5.86,5.83 -10.133248,-9.599908 -25.160253,-10.271435 -36.12,0 -1.95,-1.94 -3.89,-3.9 -5.86,-5.83 z"
       id="path4767"
       style="opacity:1;fill:none;stroke:#ffffff;stroke-opacity:1"
       inkscape:connector-curvature="0"
       sodipodi:nodetypes="ccccc" />
    <path
       d="m 20.94,36.06 c 7.824831,-7.836695 20.718898,-7.465932 28.12,0.01 -1.95,1.96 -3.92,3.93 -5.88,5.89 -4.52,-4.19 -11.84,-4.18 -16.36,0 -1.96,-1.96 -3.93,-3.93 -5.88,-5.9 z"
       id="path4769"
       style="opacity:1;fill:none;stroke:#ffffff;stroke-opacity:1"
       inkscape:connector-curvature="0"
       sodipodi:nodetypes="ccccc" />
    <path
       d="m 30.683792,45.865932 c 2.712966,-2.68339 6.257109,-2.458146 8.652278,-0.0066 -1.552712,1.548684 -4.360551,4.31945 -4.360551,4.31945 0,0 -2.895932,-2.908899 -4.291727,-4.312828 z"
       id="path4771"
       style="opacity:1;fill:#ffffff;stroke:none;stroke-opacity:1;fill-opacity:1"
       inkscape:connector-curvature="0"
       sodipodi:nodetypes="cccc" />
  </g>
</svg>
