<?xml version="1.0" encoding="UTF-8" standalone="no"?>
<svg
   xmlns:dc="http://purl.org/dc/elements/1.1/"
   xmlns:cc="http://creativecommons.org/ns#"
   xmlns:rdf="http://www.w3.org/1999/02/22-rdf-syntax-ns#"
   xmlns:svg="http://www.w3.org/2000/svg"
   xmlns="http://www.w3.org/2000/svg"
   version="1.1"
   id="Layer_1"
   x="0px"
   y="0px"
   width="512px"
   height="512px"
   viewBox="0 0 512 512"
   enable-background="new 0 0 512 512"
   xml:space="preserve"><metadata
     id="metadata13"><rdf:RDF><cc:Work
         rdf:about=""><dc:format>image/svg+xml</dc:format><dc:type
           rdf:resource="http://purl.org/dc/dcmitype/StillImage" /><dc:title></dc:title></cc:Work></rdf:RDF></metadata><defs
     id="defs11" /><g
     transform="matrix(0.97220534,0,0,0.97220534,1.6629105,5.56004)"
     id="g3"><path
       d="m 226.69638,62.082422 c 7.08627,0 12.836,-5.74972 12.836,-12.836 l 0,-25.67199 c 0,-7.08627 -5.74973,-12.836 -12.836,-12.836 -7.08627,0 -12.836,5.74973 -12.836,12.836 l 0,25.67199 c 0,7.08628 5.74973,12.836 12.836,12.836 z m 99.83036,33.82847 18.1509,-18.1509 c 5.01326,-5.01407 5.01326,-13.13684 0,-18.15091 -5.01406,-5.01406 -13.13684,-5.01406 -18.1509,0 l -18.1509,18.15091 c -5.01406,5.01406 -5.01406,13.13684 0,18.1509 5.01326,5.014058 13.13684,5.014058 18.1509,0 z m -253.862319,94.531498 25.67199,0 c 7.086279,0 12.835999,-5.74973 12.835999,-12.836 0,-7.08627 -5.74972,-12.836 -12.835999,-12.836 l -25.67199,0 c -7.08627,0 -12.836,5.74973 -12.836,12.836 0,7.08627 5.74973,12.836 12.836,12.836 z m 269.555929,-12.836 c 0,7.08627 5.74973,12.836 12.836,12.836 l 25.67199,0 c 7.08628,0 12.836,-5.74973 12.836,-12.836 0,-7.08627 -5.74972,-12.836 -12.836,-12.836 l -25.67199,0 c -7.08627,0 -12.836,5.74973 -12.836,12.836 z M 126.84917,95.910892 c 5.01487,5.014058 13.13765,5.014058 18.15091,0 5.01486,-5.01406 5.01486,-13.13684 0,-18.1509 l -18.15091,-18.15091 c -5.01406,-5.01406 -13.13603,-5.01406 -18.1509,0 -5.01406,5.01407 -5.01406,13.13684 0,18.15091 l 18.1509,18.1509 z M 380.72834,216.11438 c -4.26155,0 -8.47336,0.30085 -12.66913,0.90253 -13.45453,-18.35146 -31.38722,-32.35714 -51.71141,-41.31586 -1.03571,-48.6364 -40.76392,-87.946638 -89.65142,-87.946638 -49.53892,0 -89.85198,40.313058 -89.85198,89.851978 0,13.98963 3.47695,27.07593 9.22588,38.85938 -47.834149,1.95508 -86.241859,41.21478 -86.241859,89.50059 0,49.53892 40.313059,89.85198 89.851979,89.85198 10.9812,0 21.72813,-2.00563 31.85654,-5.8829 23.23075,20.25681 52.78081,31.55489 83.66743,31.55489 30.92031,0 60.43589,-11.29808 83.66744,-31.55489 10.1284,3.87727 20.87534,5.8829 31.85653,5.8829 49.53893,0 89.85198,-40.31306 89.85198,-89.85198 0,-49.53893 -40.31305,-89.85198 -89.85198,-89.85198 z M 226.69638,113.42641 c 31.93917,0 58.21285,23.39922 63.14348,53.9513 -8.03935,-1.6045 -16.24476,-2.60732 -24.63549,-2.60732 -36.85375,0 -70.99911,15.89418 -94.96632,42.71981 -4.76296,-8.95873 -7.72165,-19.01974 -7.72165,-29.88381 0,-35.44981 28.73017,-64.17998 64.17998,-64.17998 z m 154.03196,256.71993 c -13.73853,0 -26.40685,-4.41237 -36.85375,-11.76659 -18.83522,22.69725 -46.88187,37.43859 -78.67022,37.43859 -31.78915,0 -59.835,-14.74134 -78.67022,-37.43859 -10.42925,7.35422 -23.11522,11.76659 -36.85375,11.76659 -35.44981,0 -64.179979,-28.73017 -64.179979,-64.17998 0,-35.44982 28.730169,-64.17998 64.179979,-64.17998 6.21744,0 12.08349,1.16968 17.74978,2.84076 2.25592,0.63538 4.54635,1.13679 6.6683,2.02247 3.50984,-6.86886 7.92221,-13.15368 12.81915,-19.05343 18.75339,-22.56247 46.64761,-37.15379 78.28674,-37.15379 8.12278,0 15.91182,1.16968 23.46581,2.97554 8.47336,2.00482 16.47981,5.04696 23.93432,9.05821 18.6852,9.92784 34.02823,25.30456 43.68812,44.17428 7.53874,-3.10872 15.77865,-4.86404 24.43572,-4.86404 35.44982,0 64.17999,28.73016 64.17999,64.17998 0,35.44981 -28.73017,64.17998 -64.17999,64.17998 z"
       id="path7"
       style="fill:#1d1d1b" /><path
       id="path3346"
       d="m 248.47192,482.27929 c 0,12.2611 9.9209,22.182 22.182,22.182 12.2611,0 22.182,-9.9209 22.182,-22.182 0,-12.2611 -22.182,-44.36401 -22.182,-44.36401 0,0 -22.182,32.10291 -22.182,44.36401 z M 374.8583,459.33026 c 0,12.2611 9.9209,22.182 22.182,22.182 12.2611,0 22.182,-9.9209 22.182,-22.182 0,-12.26111 -22.182,-44.36401 -22.182,-44.36401 0,0 -22.182,32.1029 -22.182,44.36401 z m -238.81851,-4.47839 c 0,12.2611 9.9209,22.182 22.182,22.182 12.2611,0 22.182,-9.9209 22.182,-22.182 0,-12.2611 -22.182,-44.364 -22.182,-44.364 0,0 -22.182,32.1029 -22.182,44.364 z"
       style="clip-rule:evenodd;fill:#1d1d1b;fill-rule:evenodd" /></g></svg>