<?xml version="1.0" encoding="UTF-8" standalone="no"?>
<svg
   xmlns:dc="http://purl.org/dc/elements/1.1/"
   xmlns:cc="http://creativecommons.org/ns#"
   xmlns:rdf="http://www.w3.org/1999/02/22-rdf-syntax-ns#"
   xmlns:svg="http://www.w3.org/2000/svg"
   xmlns="http://www.w3.org/2000/svg"
   id="svg3345"
   version="1.1"
   viewBox="0 0 100 100"
   height="100pt"
   width="100pt">
  <metadata
     id="metadata3358">
    <rdf:RDF>
      <cc:Work
         rdf:about="">
        <dc:format>image/svg+xml</dc:format>
        <dc:type
           rdf:resource="http://purl.org/dc/dcmitype/StillImage" />
        <dc:title></dc:title>
      </cc:Work>
    </rdf:RDF>
  </metadata>
  <defs
     id="defs3356" />
  <path
     id="path3360"
     d="m 2,36 c 2,0 11.6,2.4 14,4 l 0,-4 C 12.8,34.4 4,32 2,32 Z"
     style="opacity:1;fill:#3498db" />
  <path
     id="path3360-3"
     d="m 2,48 c 2,0 11.600001,2.4 14,4 l 0,-4 C 12.800001,46.4 4,44 2,44 Z"
     style="opacity:1;fill:#3498db" />
  <path
     id="path3360-3-4"
     d="m 2,60 c 2,0 11.600001,2.4 14,4 l 0,-4 C 12.800001,58.4 4,56 2,56 Z"
     style="opacity:1;fill:#3498db" />
  <path
     style="opacity:1;fill:#3498db"
     id="path3352-5"
     d="m 41.1,52.55 c 9.21,-2.6 18.23,-8.75 28.15,-6.36 9.67,2.16 18.88,6.22 28.76,7.43 C 98,54.94 98,56.27 98,57.6 87.61,56.65 78.01,52.18 67.9,49.95 56.19,47.93 46.49,57.78 34.92,57.45 31.19,57.23 27.62,56.07 24.03,55.16 24.02,53.74 24.01,52.32 24,50.9 c 5.52,1.52 11.42,3.82 17.1,1.65 z" />
  <path
     style="opacity:1;fill:#3498db"
     id="path3352-5-5"
     d="m 41.1,40.55 c 9.21,-2.6 18.23,-8.75 28.15,-6.36 9.67,2.16 18.88,6.22 28.76,7.43 C 98,42.94 98,44.27 98,45.6 87.61,44.65 78.01,40.18 67.9,37.95 56.19,35.93 46.49,45.78 34.92,45.45 31.19,45.23 27.62,44.07 24.03,43.16 24.02,41.74 24.01,40.32 24,38.9 c 5.52,1.52 11.42,3.82 17.1,1.65 z" />
  <g
     id="#000000ff">
    <path
       style="opacity:1;fill:#000000"
       id="path3348"
       d="M 16,8.0116466 C 15.9,4.4516466 19.5,1.59 22.93,2.02 40.96,1.98 59,1.99 77.03,2.02 c 3.43,-0.43 6.98,2.26 6.87,5.85 0.26,8.33 0.1,25 0.1,25 L 79.99,31.68 79.58,6.27 20.42,6.29 c 0.104068,28.790741 -0.01,87.43 -0.01,87.43 l 59.2,0 c 0,0 0.2,-14.48 0.39,-21.72 1.33,0.39 2.67,0.79 4,1.18 -0.14,6.65 0.29,13.32 -0.22,19.95 -0.32,3.22 -3.7,5.18 -6.74,4.85 -18.04,0.03 -36.08,0.04 -54.11,0 -3.46,0.46 -7.02,-2.42125 -6.93,-5.99125 -0.1,-4.12 -0.1,-79.887103 0,-83.9771034 z" />
    <path
       style="opacity:1;fill:#3498db"
       id="path3352"
       d="m 41.1,64.55 c 9.21,-2.6 18.23,-8.75 28.15,-6.36 9.67,2.16 18.88,6.22 28.76,7.43 C 98,66.94 98,68.27 98,69.6 87.61,68.65 78.01,64.18 67.9,61.95 56.19,59.93 46.49,69.78 34.92,69.45 31.19,69.23 27.62,68.07 24.03,67.16 24.02,65.74 24.01,64.32 24,62.9 c 5.52,1.52 11.42,3.82 17.1,1.65 z" />
  </g>
</svg>
