<?xml version="1.0" encoding="UTF-8" ?>
<!DOCTYPE svg PUBLIC "-//W3C//DTD SVG 1.1//EN" "http://www.w3.org/Graphics/SVG/1.1/DTD/svg11.dtd">
<svg width="100pt" height="100pt" viewBox="0 0 100 100" version="1.1" xmlns="http://www.w3.org/2000/svg">
<g id="#000000ff">
<path fill="#000000" opacity="1.00" d=" M 74.76 0.00 L 76.96 0.00 C 78.81 3.25 80.54 6.57 82.73 9.62 C 85.92 8.68 89.03 7.49 92.06 6.12 C 92.50 6.58 93.39 7.49 93.83 7.94 C 92.49 11.20 91.43 14.59 90.81 18.06 C 93.73 19.90 96.83 21.44 100.00 22.81 L 100.00 25.01 C 96.85 26.67 93.61 28.14 90.52 29.91 C 91.30 33.39 92.50 36.75 93.90 40.02 C 93.44 40.48 92.52 41.39 92.06 41.84 C 88.77 40.50 85.38 39.35 81.92 38.52 C 79.80 41.43 78.78 44.95 76.80 47.94 C 76.38 47.92 75.55 47.89 75.13 47.87 C 72.99 44.82 71.50 41.36 69.26 38.36 C 66.15 39.28 63.19 40.67 60.05 41.49 C 59.56 41.22 58.58 40.67 58.09 40.40 C 59.38 36.98 60.45 33.49 61.15 29.91 C 58.30 27.91 55.01 26.73 52.03 24.96 C 52.04 24.50 52.06 23.59 52.06 23.14 C 54.87 21.04 58.32 20.00 61.29 18.15 C 60.93 14.29 58.13 10.52 58.91 6.73 C 62.76 6.31 66.27 8.93 70.06 9.51 C 72.03 6.56 73.52 3.32 74.76 0.00 M 71.84 12.75 C 69.26 13.90 66.51 12.58 63.96 12.02 C 64.49 14.56 65.65 17.25 64.78 19.85 C 63.48 21.86 61.09 22.75 59.14 23.98 C 60.80 24.97 62.64 25.78 64.00 27.19 C 65.80 29.76 64.62 32.98 64.03 35.74 C 65.99 35.31 67.98 34.42 70.03 34.81 C 72.91 35.67 74.26 38.62 75.78 40.94 C 76.97 38.87 78.00 36.44 80.20 35.23 C 82.75 34.12 85.45 35.41 87.97 35.97 C 87.41 33.46 86.12 30.76 87.22 28.22 C 88.36 26.06 90.88 25.25 92.84 24.01 C 90.87 22.73 88.28 21.82 87.35 19.47 C 86.49 17.11 87.47 14.63 87.86 12.27 C 85.94 12.69 84.01 13.57 82.01 13.20 C 79.09 12.37 77.74 9.37 76.20 7.04 C 75.03 9.11 74.02 11.53 71.84 12.75 Z" />
<path fill="#000000" opacity="1.00" d=" M 3.90 10.92 C 8.90 4.36 18.71 2.00 26.03 5.98 C 30.12 7.77 31.98 12.45 36.30 13.88 C 43.46 16.87 46.12 26.56 42.04 33.01 C 39.43 37.56 34.22 40.25 29.02 40.00 C 22.32 39.93 15.61 40.21 8.92 39.86 C 4.13 39.56 0.45 35.35 0.00 30.71 L 0.00 28.25 C 1.90 28.37 1.42 25.50 0.00 25.09 L 0.00 21.59 C 0.24 17.76 1.48 13.94 3.90 10.92 M 14.43 8.50 C 6.71 10.37 2.10 19.26 4.81 26.71 C 2.52 30.59 5.33 36.06 9.95 35.97 C 16.98 35.97 24.03 36.15 31.05 35.88 C 37.48 35.51 41.88 27.98 39.22 22.17 C 37.88 18.49 34.16 16.60 30.55 15.86 C 27.62 10.12 20.76 6.59 14.43 8.50 Z" />
<path fill="#000000" opacity="1.00" d=" M 73.29 14.42 C 80.37 12.01 87.99 19.62 85.59 26.70 C 83.91 33.82 73.92 36.44 68.95 31.08 C 63.58 26.13 66.12 16.05 73.29 14.42 M 74.20 18.29 C 70.03 19.47 68.47 25.36 71.82 28.25 C 74.57 31.25 79.93 30.16 81.45 26.43 C 83.84 22.10 78.74 16.49 74.20 18.29 Z" />
<path fill="#000000" opacity="1.00" d=" M 51.04 73.80 C 55.76 65.57 60.29 57.23 65.02 49.01 C 62.82 58.27 60.35 67.47 58.02 76.70 C 60.78 79.45 63.13 82.97 62.96 87.05 C 63.09 93.44 57.91 98.95 51.73 100.00 L 48.56 100.00 C 40.89 99.12 35.13 90.89 37.54 83.43 C 39.07 77.43 45.11 73.90 51.04 73.80 M 47.32 78.44 C 40.71 80.12 38.82 89.71 44.19 93.85 C 48.93 98.25 57.57 95.39 58.75 89.02 C 60.57 82.61 53.58 76.11 47.32 78.44 Z" />
</g>
</svg>
