<?xml version="1.0" encoding="UTF-8" ?>
<!DOCTYPE svg PUBLIC "-//W3C//DTD SVG 1.1//EN" "http://www.w3.org/Graphics/SVG/1.1/DTD/svg11.dtd">
<svg width="100pt" height="100pt" viewBox="0 0 100 100" version="1.1" xmlns="http://www.w3.org/2000/svg">
<g id="#000000ff">
<path fill="#000000" opacity="1.00" d=" M 48.53 0.00 L 51.92 0.00 C 64.33 0.58 76.52 5.76 85.27 14.64 C 94.16 23.35 99.34 35.51 100.00 47.90 L 100.00 51.95 C 99.38 64.62 94.00 77.05 84.79 85.84 C 76.13 94.39 64.24 99.34 52.12 100.00 L 48.06 100.00 C 35.62 99.41 23.41 94.20 14.66 85.29 C 5.67 76.44 0.42 64.06 0.00 51.47 L 0.00 48.53 C 0.41 35.92 5.68 23.54 14.69 14.68 C 23.55 5.67 35.93 0.42 48.53 0.00 M 41.50 4.81 C 24.29 7.86 9.61 21.61 5.46 38.59 C 1.83 52.40 5.16 67.78 14.19 78.83 C 23.57 90.66 39.08 97.28 54.11 95.77 C 67.60 94.69 80.35 87.17 87.92 75.98 C 94.34 66.71 97.11 55.01 95.54 43.85 C 93.85 30.35 85.67 17.86 74.04 10.82 C 64.44 4.84 52.60 2.72 41.50 4.81 Z" />
<path fill="#000000" opacity="1.00" d=" M 30.62 33.45 C 28.82 31.91 30.82 29.09 32.91 30.19 C 38.77 35.65 44.25 41.53 50.00 47.12 C 55.75 41.52 61.24 35.65 67.10 30.19 C 68.84 29.23 69.66 30.88 70.44 32.14 C 64.87 38.36 58.69 44.00 52.88 50.00 C 58.32 55.58 64.01 60.93 69.34 66.61 C 71.01 68.00 69.15 70.89 67.18 69.89 C 61.28 64.41 55.78 58.50 50.00 52.88 C 43.86 58.67 38.38 65.18 31.83 70.50 C 30.64 69.64 29.20 67.92 30.66 66.58 C 36.02 60.94 41.67 55.57 47.12 50.00 C 41.65 44.45 36.06 39.03 30.62 33.45 Z" />
</g>
</svg>
