<?xml version="1.0" encoding="UTF-8" standalone="no"?>
<svg
   xmlns:dc="http://purl.org/dc/elements/1.1/"
   xmlns:cc="http://creativecommons.org/ns#"
   xmlns:rdf="http://www.w3.org/1999/02/22-rdf-syntax-ns#"
   xmlns:svg="http://www.w3.org/2000/svg"
   xmlns="http://www.w3.org/2000/svg"
   id="svg3428"
   version="1.1"
   viewBox="0 0 100 100"
   height="100pt"
   width="100pt">
  <defs
     id="defs3437" />
  <g
     id="colors">
    <path
       id="path3469"
       d="M 27.913136,16.631356 22.404661,63.559322 78.125,64.036017 72.404661,16.260593 Z"
       style="fill:#decd87;fill-rule:evenodd;stroke:#000000;stroke-width:0.80000001px;stroke-linecap:butt;stroke-linejoin:miter;stroke-opacity:1" />
    <path
       id="path3466"
       d="M 21.72256,53.558665 3.8201743,61.948067 49.737172,89.663056 96.92756,62.397499 77.302352,53.858286 78.276122,64.120323 22.396709,63.820702 Z"
       style="fill:#999999" />
    <path
       id="path3461"
       d="M 2.8464044,63.446175 2.0973506,69.438605 50.036794,98.202272 98.425672,69.438605 97.376992,62.54731 50.186604,89.663056 Z"
       style="fill:#999999" />
  </g>
  <g
     id="lines">
    <path
       style="opacity:1;fill:#000000"
       id="path3431"
       d="m 48.39,0 2.3,0 c 7.38,0.37 13.2,6.72 13.46,14 3.32,-0.01 6.65,-0.16 9.97,0.11 0.32,0.89 0.52,1.81 0.61,2.76 1.79,16.38 3.68,32.75 5.53,49.12 -20.18,0.02 -40.35,0.01 -60.53,0 1.98,-17.31 3.95,-34.62 5.87,-51.94 3.42,-0.04 6.84,-0.06 10.25,-0.07 C 36.16,7.01 41.43,0.97 48.39,0 m -8.57,13.94 c 6.78,0.1 13.56,0.09 20.35,0 C 59.73,8.37 54.66,3.3 48.88,4.08 43.9,4.64 40.39,9.17 39.82,13.94 M 29.21,18 C 27.49,32.66 25.92,47.33 24.24,61.98 41.41,62.01 58.58,62 75.75,61.99 74.08,47.33 72.5,32.66 70.79,18.01 68.5,18 66.21,18 63.93,18 c 0.07,0.69 0.21,2.07 0.28,2.76 3.03,2 1.65,7.43 -2.18,7.2 -3.88,0.28 -5.21,-5.1 -2.25,-7.2 0.07,-0.69 0.22,-2.07 0.29,-2.76 -6.71,0 -13.43,0 -20.14,0.01 0.07,0.68 0.21,2.05 0.27,2.73 3.05,2.02 1.65,7.48 -2.21,7.23 -3.87,0.21 -5.16,-5.13 -2.2,-7.23 0.07,-0.68 0.21,-2.05 0.28,-2.74 -2.29,0 -4.57,0 -6.86,0 z" />
    <path
       style="opacity:1;fill:#000000"
       id="path3433"
       d="M 0,60.87 21.581863,51.34067 21.2231,55.478967 6.44,62.22 50,87.68 93.61,62.19 78.504731,55.069534 78.414265,51.170102 100,60.91 100,70.96 50.47,100 49.56,100 0,70.99 0,60.87 M 3.98,65.5 4.06,68.94 50,95.68 95.94,68.94 96.02,65.5 49.99,92.02 Z" />
  </g>
</svg>
