<?xml version="1.0" encoding="UTF-8" standalone="no"?>
<svg
   xmlns:dc="http://purl.org/dc/elements/1.1/"
   xmlns:cc="http://creativecommons.org/ns#"
   xmlns:rdf="http://www.w3.org/1999/02/22-rdf-syntax-ns#"
   xmlns:svg="http://www.w3.org/2000/svg"
   xmlns="http://www.w3.org/2000/svg"
   id="svg3362"
   version="1.1"
   viewBox="0 0 255 255"
   height="255pt"
   width="255pt">
  <metadata
     id="metadata3387">
    <rdf:RDF>
      <cc:Work
         rdf:about="">
        <dc:format>image/svg+xml</dc:format>
        <dc:type
           rdf:resource="http://purl.org/dc/dcmitype/StillImage" />
        <dc:title></dc:title>
      </cc:Work>
    </rdf:RDF>
  </metadata>
  <defs
     id="defs3385" />
  <g
     id="#000000ff">
    <path
       style="stroke:#000000;stroke-width:6px;stroke-linecap:butt;stroke-linejoin:miter;opacity:1;fill:#ff0000"
       id="path3365"
       d="m 27.39,20.11 27.52,-0.15 c 0,0 -12.412047,36.233059 -18.47,52.38 -0.95,2.74 -2.730568,4.30409 -6.757291,5.665504 C 25.655986,79.366919 19.737117,79.311822 15.5,77.86 11.262883,76.408178 8.2359456,74.589415 6.7372775,71.900636 5.2386095,69.211856 5.3670085,66.354457 6.08,64.63 12.841567,50.037981 27.39,20.11 27.39,20.11 Z" />
    <path
       style="stroke:#000000;stroke-width:6px;stroke-linecap:butt;stroke-linejoin:miter;opacity:1;fill:#cccccc"
       id="path3367"
       d="m 61.42,20.08 26.74,-0.07 c 0,0 -6.562394,35.127107 -9.5,49.93 -1.222849,3.392468 -3.094592,5.128543 -7.585699,7.482468 C 66.583193,79.776393 58.28,79.77 52.72,75.42 c -2.8,-2.48 -6.378167,-6.552849 -5.7,-9.5 4.698497,-15.068357 14.4,-45.84 14.4,-45.84 z" />
    <path
       style="stroke:#000000;stroke-width:6px;stroke-linecap:butt;stroke-linejoin:miter;opacity:1;fill:#ff0000"
       id="path3369"
       d="m 95.48,20.02 26.39,-0.01 c 0,0 -0.62,32.04 -1.22,48.05 -0.25507,2.538983 -3.5987,7.86353 -7.99,9.9 -4.3913,2.03647 -13.553612,0.91646 -16.22,-0.49 C 93.773612,76.06354 90.571656,74.241614 89.287405,71.900636 88.003154,69.559658 88.127532,66.647532 88.55,64.5 90.84,49.67 95.48,20.02 95.48,20.02 Z" />
    <path
       style="stroke:#000000;stroke-width:6px;stroke-linecap:butt;stroke-linejoin:miter;opacity:1;fill:#cccccc"
       id="path3371"
       d="m 129.05,20 27.85,0 c 0,0 3.82,27.36 5.37,41.09 0.54922,3.253257 -0.10637,7.196336 -1.16403,9.47 -1.05767,2.273664 -3.11729,4.96489 -6.57597,6.573487 -3.45868,1.608596 -12.95397,1.322313 -16.15271,0.08775 C 135.17855,75.986678 130.9126,71.549237 130.82,69.02 129.84,52.7 129.05,20 129.05,20 Z" />
    <path
       style="stroke:#000000;stroke-width:6px;stroke-linecap:butt;stroke-linejoin:miter;opacity:1;fill:#ff0000"
       id="path3373"
       d="m 162.83,20.01 27.79,0.03 c 0,0 8.60369,28.857428 12.84,42.37 1.76,4.46 -1.07667,9.687003 -3.78,12.12 -2.70333,2.432997 -4.6324,3.605634 -8.3383,4.334496 C 187.6358,79.593358 181.94592,79.6218 178.4,77.47 c -3.54592,-2.1518 -6.66051,-5.16285 -7.09,-7.58 -3.00264,-17.10185 -8.48,-49.88 -8.48,-49.88 z" />
    <path
       style="stroke:#000000;stroke-width:6px;stroke-linecap:butt;stroke-linejoin:miter;opacity:1;fill:#cccccc"
       id="path3375"
       d="m 196.02,19.95 28.09,0.02 c 0,0 13.9955,29.263802 20.83,43.67 0.63779,1.995191 1.13398,4.792678 0.04,7.730635 -1.09398,2.937957 -5.91273,6.609475 -10.98697,7.760374 -5.07425,1.150898 -10.0775,0.476801 -13.66433,-1.197892 C 216.74188,76.258425 213.8643,73.584809 213.17,71.63 206.8956,54.609003 196.02,19.95 196.02,19.95 Z" />
    <path
       style="stroke:#000000;stroke-width:6px;stroke-linecap:butt;stroke-linejoin:miter;opacity:1;fill:#564334"
       id="path3377"
       d="m 36.59,82.55 c 1.839105,-0.957342 4.34,-3.01 4.34,-3.01 L 41,162 l -11.01,0 0,-76.7 c 0,0 4.760895,-1.792658 6.6,-2.75 z" />
    <path
       style="stroke:#000000;stroke-width:6px;stroke-linecap:butt;stroke-linejoin:miter;opacity:1;fill:#564334"
       id="path3379"
       d="m 210.07,79.52 c 0,0 3.44203,2.914821 5.28898,3.924555 C 217.20593,84.454289 221.16,85.28 221.16,85.28 L 221,162 l -11,0 z" />
    <path
       style="stroke:#000000;stroke-width:6px;stroke-linecap:butt;stroke-linejoin:miter;opacity:1;fill:#564334"
       id="path3381"
       d="m 20.98,176.54298 c 0.03787,-7.55352 -0.05979,-7.55422 8.895726,-7.53298 8.955519,0.0212 181.040854,-0.0486 191.143484,-0.01 10.10263,0.0386 10.19731,-0.26396 10.06832,10.1199 -0.12899,10.38385 0.0568,37.35763 0.0875,46.14758 0.0308,8.78995 -0.0403,8.97357 -9.23104,8.85888 -9.19074,-0.11469 -182.945947,-0.0807 -192.027364,-0.0486 -9.081417,0.0321 -9.108997,-0.15584 -9.149251,-9.11231 0.05,-16.16 0.174721,-40.86894 0.212595,-48.42246 z" />
  </g>
</svg>
