<?xml version="1.0" encoding="UTF-8" standalone="no"?>
<svg
   xmlns:dc="http://purl.org/dc/elements/1.1/"
   xmlns:cc="http://creativecommons.org/ns#"
   xmlns:rdf="http://www.w3.org/1999/02/22-rdf-syntax-ns#"
   xmlns:svg="http://www.w3.org/2000/svg"
   xmlns="http://www.w3.org/2000/svg"
   width="100pt"
   height="100pt"
   viewBox="0 0 100 100"
   version="1.1"
   id="svg3352">
  <defs
     id="defs3361" />
  <path
     id="path3530"
     d="M 60.673357,9.3644907 C 54.808611,8.5810111 42.687772,8.5269896 36.703635,13.259571 c -5.984136,4.732581 -6.024775,8.606382 -8.760164,19.069845 -2.735389,10.463463 -3.973749,43.251431 -3.973749,43.850674 0,0.599243 2.58415,11.132746 6.292052,13.78259 3.707902,2.649844 11.085996,2.247162 15.87994,0.299623 4.793944,-1.947538 9.555745,-14.358546 15.130886,-21.27313 5.575142,-6.914585 11.438576,-11.1924 14.381834,-19.325588 2.943258,-8.133188 3.555048,-18.042259 1.947539,-23.969721 C 74.64885,16.824724 68.215988,11.525629 60.673357,9.3644907 Z"
     style="fill:#ffe0bd" />
  <g
     id="#000000ff">
    <path
       d="m 47.46,6.67 c 13.77,-3.26 28.85,6.29 31.73,20.14 1.81,10.08 0.6,21.3 -5.71,29.69 -5.13,6.82 -10.94,13.18 -15.2,20.64 -2.32,3.76 -3.88,8.02 -6.76,11.42 -4.88,5.33 -13.4,6.93 -19.85,3.65 -5.68,-2.69 -9.563759,-13.574098 -9.52,-15.13 0.04376,-1.555902 2.472597,-2.553219 3.23,-1.57 0.757403,0.983219 1.17,6.93 3.55,9.59 3.78,4.91 11.14,6.28 16.5,3.23 3.12,-1.51 4.82,-4.65 6.37,-7.58 3.93,-7.44 8.53,-14.53 14.01,-20.92 4.31,-5.12 8.73,-10.69 9.57,-17.56 0.85,-6.78 1.31,-14.22 -2.32,-20.33 -4,-7.56 -12.59,-12.36 -21.12,-11.85 -10.39,0.3 -19.93,8.63 -21.47,18.93 -0.41,1.97 -0.833237,5.387235 -1.45,5.89 -0.616763,0.502765 -2.81,-0.23 -2.85,-1.96 C 25.74,20.58 35.4,9.02 47.46,6.67 Z"
       id="path3355"
       style="opacity:1;fill:#000000" />
    <path
       d="m 38.11,25.03 c 3.63,-6.96 12.45,-10.76 19.94,-8.16 6.86,2.04 12.03,8.92 11.79,16.11 0.3,1.9 -1.96,2.46 -3.22,1.48 -1.01,-3.44 -1.27,-7.36 -3.99,-10.02 -4.7,-5.79 -14.46,-5.8 -19.19,-0.04 -3.26,3.08 -3.1,7.75 -4.11,11.78 -1.7,2.97 -4.5,5.24 -5.58,8.58 3.36,1.83 8.2,3.73 8.2,8.28 0.12,4.69 -6.13,5.01 -7.51,8.92 -0.76,2.33 -0.14,5.21 1.94,6.66 1.7,1.1 3.72,1.53 5.59,2.26 -0.09,0.71 -0.29,2.13 -0.39,2.84 -6.47,1.44 -12.89,-5.23 -11.33,-11.65 0.89,-4.31 4.81,-6.8 8.21,-9.07 -2.2,-3.37 -7.63,-3.67 -8.33,-8.09 -0.69,-4.13 3.14,-6.62 5.12,-9.66 1.18,-3.34 1.01,-7.1 2.86,-10.22 z"
       id="path3357"
       style="opacity:1;fill:#000000" />
  </g>
</svg>
