<?xml version="1.0" encoding="UTF-8" standalone="no"?>
<svg
   xmlns:dc="http://purl.org/dc/elements/1.1/"
   xmlns:cc="http://creativecommons.org/ns#"
   xmlns:rdf="http://www.w3.org/1999/02/22-rdf-syntax-ns#"
   xmlns:svg="http://www.w3.org/2000/svg"
   xmlns="http://www.w3.org/2000/svg"
   width="100pt"
   height="100pt"
   viewBox="0 0 100 100"
   version="1.1"
   id="svg3532">
  <metadata
     id="metadata3398">
    <rdf:RDF>
      <cc:Work
         rdf:about="">
        <dc:format>image/svg+xml</dc:format>
        <dc:type
           rdf:resource="http://purl.org/dc/dcmitype/StillImage" />
        <dc:title></dc:title>
      </cc:Work>
    </rdf:RDF>
  </metadata>
  <defs
     id="defs3543" />
  <path
     style="fill:#ffe0bd"
     d="m 23.633237,20.572524 -7.36643,15.097654 1.219779,16.382071 7.921795,16.917969 2.463436,14.012627 -1.216661,13.227228 33.278747,0.105932 -0.06205,-17.522154 10.289945,0.97156 6.069537,-4.028008 -0.94586,-17.223827 8.466518,-5.46277 L 76.194987,38.507228 73.315353,25.538863 66.024737,17.199576 52.274088,12.354225 33.988354,14.0172 Z"
     id="path3547" />
  <path
     id="path3402"
     d="m 27.118644,96.822032 c 0,0 0.857469,-10.889058 0.529661,-15.677968 -0.327808,-4.78891 -0.819957,-8.848481 -2.224576,-12.923725 -1.404619,-4.075244 -4.545901,-7.434048 -6.038135,-11.228813 -1.492234,-3.794765 -2.59478,-7.364062 -2.966103,-11.334746 -0.371323,-3.970684 -0.144917,-8.452634 0.847458,-12.182204 0.992375,-3.72957 2.52993,-6.874092 4.766949,-9.851694 2.237019,-2.977602 4.930957,-5.673422 8.474576,-7.62712 3.543619,-1.953698 8.028669,-3.013959 12.394068,-3.495762 4.365399,-0.481803 9.349585,-0.27765 13.45339,0.741526 4.103805,1.019176 7.960494,2.792319 10.805085,4.978813 2.844591,2.186494 4.670161,4.306866 6.144068,7.415254 1.473907,3.108388 1.3226,8.060097 2.118644,10.805085 0.796044,2.744988 1.290261,4.598 2.648305,7.415254 1.358044,2.817254 6.348565,7.214866 5.932206,9.216102 -0.416359,2.001236 -8.792375,5.29661 -8.792375,5.29661 -0.551048,5.484841 2.584037,11.678175 0.953389,16.472458 -3.195129,5.625606 -11.424116,3.956998 -16.207627,3.972457 l -0.105932,18.114409"
     style="fill:none;fill-rule:evenodd;stroke:#000000;stroke-width:4px;stroke-linecap:butt;stroke-linejoin:miter;stroke-opacity:1" />
  <path
     id="path3414"
     d="m 44.753303,22.747306 -5.782771,14.907274 8.651114,-2.261115 -3.331729,7.785024 -2.574046,-2.679522 -0.639357,11.528548 9.706673,-6.838975 -4.695542,-0.961376 7.648524,-13.588175 -10.317854,3.306673 6.986124,-11.294285 z"
     style="fill:#ffff00;fill-rule:evenodd;stroke:#000000;stroke-width:0.80000001px;stroke-linecap:butt;stroke-linejoin:miter;stroke-opacity:1" />
  <path
     id="path3416"
     d="m 5.3495763,39.221396 -0.3177968,2.86017 6.4618645,0.05297 0.05297,-1.059322 z"
     style="fill:#000000;fill-rule:evenodd;stroke:#000000;stroke-width:0.80000001px;stroke-linecap:butt;stroke-linejoin:miter;stroke-opacity:1" />
  <path
     id="path3418"
     d="m 9.9284253,21.178834 5.4566117,3.009658 0.532322,-0.816431 -4.687822,-4.28727 z"
     style="fill:#000000;fill-rule:evenodd;stroke:#000000;stroke-width:0.80000001px;stroke-linecap:butt;stroke-linejoin:miter;stroke-opacity:1" />
  <path
     id="path3420"
     d="m 82.547668,19.279662 -5.111227,3.442796 0.635593,0.979873 5.773304,-2.33051 z"
     style="fill:#000000;fill-rule:evenodd;stroke:#000000;stroke-width:0.80000001px;stroke-linecap:butt;stroke-linejoin:miter;stroke-opacity:1" />
  <path
     id="path3422"
     d="m 68.466215,7.0592252 -2.224576,4.9788138 0.572437,0.401789 3.751505,-4.480179 z"
     style="fill:#000000;fill-rule:evenodd;stroke:#000000;stroke-width:0.80000001px;stroke-linecap:butt;stroke-linejoin:miter;stroke-opacity:1" />
  <path
     id="path3424"
     d="M 27.813572,5.7444831 30.299861,10.758868 31.009258,10.430101 29.92579,4.9579766 Z"
     style="fill:#000000;fill-rule:evenodd;stroke:#000000;stroke-width:0.80000001px;stroke-linecap:butt;stroke-linejoin:miter;stroke-opacity:1" />
  <path
     id="path3426"
     d="m 47.999172,3.3486135 -0.0053,4.5085445 0.753274,0.094963 1.197061,-4.3961865 z"
     style="fill:#000000;fill-rule:evenodd;stroke:#000000;stroke-width:0.80000001px;stroke-linecap:butt;stroke-linejoin:miter;stroke-opacity:1" />
  <path
     id="path3428"
     d="m 14.206113,56.800592 -5.5988932,1.228962 0.5328739,2.800778 5.4367823,-2.970418 z"
     style="fill:#000000;fill-rule:evenodd;stroke:#000000;stroke-width:0.80000001px;stroke-linecap:butt;stroke-linejoin:miter;stroke-opacity:1" />
</svg>
