<?xml version="1.0" encoding="UTF-8" standalone="no"?>
<svg
   xmlns:dc="http://purl.org/dc/elements/1.1/"
   xmlns:cc="http://creativecommons.org/ns#"
   xmlns:rdf="http://www.w3.org/1999/02/22-rdf-syntax-ns#"
   xmlns:svg="http://www.w3.org/2000/svg"
   xmlns="http://www.w3.org/2000/svg"
   id="svg3336"
   version="1.1"
   viewBox="0 0 100 100"
   height="100pt"
   width="100pt">
  <metadata
     id="metadata3345">
    <rdf:RDF>
      <cc:Work
         rdf:about="">
        <dc:format>image/svg+xml</dc:format>
        <dc:type
           rdf:resource="http://purl.org/dc/dcmitype/StillImage" />
        <dc:title></dc:title>
      </cc:Work>
    </rdf:RDF>
  </metadata>
  <defs
     id="defs3343" />
  <g
     transform="translate(-10,0)"
     id="#000000ff">
    <path
       style="opacity:1;fill:#000000"
       id="path3339"
       d="m 49.14,0 1.5,0 c 4,0.42 8.7,1.74 10.44,5.79 1.44,3.87 0.81,8.11 0.92,12.15 2.48,0.06 5.02,-0.13 7.43,0.55 0.24,1.04 0.44,2.1 0.59,3.17 -2.67,0.22 -5.34,0.37 -8.02,0.41 0,1.29 0,2.58 0,3.87 2.48,0.07 5.03,-0.15 7.45,0.56 0.23,1.05 0.42,2.1 0.56,3.16 -2.67,0.22 -5.34,0.37 -8.01,0.41 0,1.28 0,2.57 0,3.85 2.52,0.05 5.03,0.2 7.54,0.38 0.15,0.76 0.43,2.28 0.58,3.04 -2.67,0.6 -5.4,0.75 -8.12,0.74 0,1.28 0,2.57 0,3.85 2.62,0.05 5.25,0.19 7.87,0.37 -0.08,1.07 -0.2,2.12 -0.35,3.18 -2.44,0.73 -5.02,0.52 -7.52,0.58 0,1.29 0,2.57 0,3.86 2.65,0.05 5.3,0.2 7.95,0.44 -0.12,1.05 -0.28,2.09 -0.48,3.13 -2.62,0.73 -5.38,0.51 -8.06,0.69 2.51,3 6.01,5.03 8.21,8.3 5.84,7.82 5.59,19.31 0.04,27.21 -4.11,6.16 -11.33,9.73 -18.61,10.31 l -1.83,0 C 43.92,99.61 38.69,97.78 34.61,94.31 26.83,88.07 24.01,76.64 27.65,67.41 29.6,62.36 33.58,58.46 37.93,55.42 38.09,40.92 37.96,26.42 37.99,11.93 38.07,9.42 38.12,6.7 39.63,4.57 41.67,1.4 45.67,0.54 49.14,0 M 42.41,7.23 C 42,10.81 41.91,14.41 42,18 47.33,18 52.66,18 58,18 57.55,13.89 59.46,8.28 55.54,5.44 51.43,3.13 45.65,3.61 42.41,7.23 M 42,22 c -0.04,11.38 0.07,22.76 -0.04,34.14 0.22,1.64 -1.65,2.25 -2.63,3.16 -6.26,3.87 -10.08,11.51 -9.14,18.85 0.34,4.8 2.86,9.22 6.27,12.52 5.49,5.25 14.14,6.73 21.12,3.79 C 64.61,91.73 69.68,84.59 69.9,77.05 70.32,71.69 68.09,66.31 64.5,62.39 62.67,60.31 59.94,59.24 58.14,57.13 57.79,45.43 58.11,33.71 58,22 52.67,22 47.33,22 42,22 Z" />
  </g>
</svg>
