<?xml version="1.0" encoding="UTF-8" standalone="no"?>
<svg
   xmlns:dc="http://purl.org/dc/elements/1.1/"
   xmlns:cc="http://creativecommons.org/ns#"
   xmlns:rdf="http://www.w3.org/1999/02/22-rdf-syntax-ns#"
   xmlns:svg="http://www.w3.org/2000/svg"
   xmlns="http://www.w3.org/2000/svg"
   xmlns:sodipodi="http://sodipodi.sourceforge.net/DTD/sodipodi-0.dtd"
   xmlns:inkscape="http://www.inkscape.org/namespaces/inkscape"
   width="100pt"
   height="100pt"
   viewBox="0 0 100 100"
   version="1.1"
   id="svg3336"
   inkscape:version="0.91 r13725"
   sodipodi:docname="temperature.svg">
  <defs
     id="defs3343" />
  <g
     id="#000000ff">
    <path
       d="m 62.95,12.05 -0.05,4.05 5.8,0 0,3.2 -5.8,0 0,6.8 5.8,0 0,3.2 -5.8,0 0,6.8 5.8,0 0,3.2 -5.8,0 0,6.8 5.8,0 0,3.2 -5.704134,0 L 63,60 c 0,0 8,4 8,16 0,12 -10.461618,19.999956 -20,20 -9.538382,4e-5 -20,-8 -20,-20 0,-12 8,-16 8,-16 L 38.94,12.05 c 0,0 -0.274489,-9.0919643 11.882728,-9.1503874 C 62.979945,2.8411895 62.95,12.05 62.95,12.05 Z m -20,0 C 42.91,23.43 43,62.4 43,62.4 c 0,0 -8,3.2 -8,13.6 0,10.4 8,16 16,16 8,0 16,-5.6 16,-16 C 67,65.6 59,62.4 59,62.4 L 58.95,12.05 c 0,0 0.03667,-5.8946123 -8.074905,-5.7302615 C 42.763523,6.4840892 42.95,12.05 42.95,12.05 Z"
       id="path3339"
       style="opacity:1;fill:#000000" />
  </g>
  <path
     id="path4140"
     transform="translate(15,0)"
     d="m 49.6,76 c 0,7.511073 -6.088927,13.6 -13.6,13.6 -7.511073,0 -13.6,-6.088927 -13.6,-13.6 0,-3.755536 1.522232,-7.155536 3.983348,-9.616652 C 27.613906,65.15279 30.4,62.9088 30.4,62.9088 L 30.4,28 l 11.2,0 0,34.9088 c 0,0 2.786094,2.24399 4.016652,3.474548 C 48.077768,68.844464 49.6,72.244464 49.6,76 Z"
     style="fill:#999999"/>
</svg>
